<svg width="171" height="28" viewBox="0 0 171 28" fill="none" xmlns="http://www.w3.org/2000/svg">
<g clip-path="url(#clip0_141_2)">
<path d="M18.1272 17.228C19.7562 16.578 21.0992 15.589 22.1172 14.289C23.2822 12.803 23.8732 11.021 23.8732 8.994C23.8732 6.327 22.8942 4.131 20.9662 2.472C19.0632 0.833 16.5082 0.004 13.3732 0.004H0.603188C0.507526 0.00452852 0.415963 0.0429009 0.348507 0.110732C0.281051 0.178563 0.243186 0.270337 0.243188 0.366V3.916C0.243188 4.114 0.405188 4.276 0.603188 4.276H12.8132C14.6502 4.276 16.1232 4.745 17.1952 5.666C18.2392 6.569 18.7702 7.75 18.7702 9.18C18.7702 10.656 18.2032 11.874 17.0882 12.8C15.9402 13.752 14.4642 14.236 12.6992 14.236H0.604187C0.508352 14.236 0.416427 14.274 0.348568 14.3417C0.280708 14.4093 0.242452 14.5012 0.242188 14.597V27.127C0.242188 27.327 0.405187 27.489 0.604187 27.489H4.50219C4.59793 27.489 4.68975 27.451 4.75745 27.3833C4.82515 27.3156 4.86319 27.2237 4.86319 27.128V18.21H12.9512L18.4752 27.214L18.5182 27.284C18.5942 27.403 18.7282 27.476 18.8662 27.476H23.7262C23.7999 27.4764 23.8724 27.4571 23.9361 27.42C23.9997 27.3828 24.0523 27.3293 24.0883 27.265C24.1242 27.2006 24.1422 27.1278 24.1405 27.0541C24.1387 26.9804 24.1172 26.9085 24.0782 26.846L18.1272 17.228V17.228ZM74.4982 26.902L63.1882 0.34L63.1522 0.254C63.1205 0.179941 63.0678 0.11679 63.0006 0.0723576C62.9335 0.0279248 62.8547 0.00415919 62.7742 0.004H57.7642C57.6836 0.0039001 57.6047 0.0275615 57.5375 0.0720263C57.4703 0.116491 57.4176 0.179786 57.3862 0.254L46.0872 26.704L46.0012 26.904C45.9753 26.9668 45.9653 27.035 45.9719 27.1027C45.9786 27.1703 46.0017 27.2352 46.0393 27.2918C46.077 27.3484 46.1279 27.3948 46.1877 27.4271C46.2475 27.4594 46.3142 27.4766 46.3822 27.477H50.8282C50.9772 27.477 51.1132 27.387 51.1732 27.248L53.6382 21.413H66.9082L69.3732 27.248C69.4332 27.388 69.5682 27.477 69.7172 27.477H74.1232C74.2632 27.477 74.3922 27.407 74.4682 27.291C74.5031 27.2332 74.524 27.1679 74.5292 27.1006C74.5344 27.0332 74.5238 26.9655 74.4982 26.903V26.902ZM65.3652 17.662H55.1272L60.2302 5.94L65.3662 17.664L65.3652 17.662ZM44.9892 11.823H34.0562C34.0395 11.823 34.0235 11.8164 34.0116 11.8045C33.9998 11.7927 33.9932 11.7767 33.9932 11.76V4.377C33.9932 4.34 34.0232 4.314 34.0562 4.314H48.5072C48.6972 4.314 48.8692 4.201 48.9452 4.025L50.4202 0.574C50.4463 0.511049 50.4565 0.442636 50.4499 0.374804C50.4433 0.306973 50.4201 0.241811 50.3823 0.185075C50.3446 0.128339 50.2934 0.0817751 50.2334 0.0494966C50.1734 0.0172182 50.1063 0.000218721 50.0382 0L29.4002 0C29.2734 0 29.1518 0.0503606 29.0622 0.140003C28.9725 0.229645 28.9222 0.351227 28.9222 0.478V27C28.9222 27.262 29.1342 27.478 29.4002 27.478H38.6122C38.7054 27.4778 38.7966 27.4503 38.8744 27.399C38.9522 27.3476 39.0133 27.2746 39.0502 27.189L40.5232 23.739C40.5493 23.6761 40.5595 23.6078 40.5529 23.5401C40.5464 23.4723 40.5233 23.4072 40.4856 23.3505C40.448 23.2938 40.397 23.2472 40.3371 23.2148C40.2772 23.1825 40.2103 23.1654 40.1422 23.165H34.0502C34.0419 23.165 34.0337 23.1634 34.0261 23.1602C34.0184 23.157 34.0115 23.1524 34.0056 23.1465C33.9998 23.1407 33.9951 23.1338 33.992 23.1261C33.9888 23.1185 33.9872 23.1103 33.9872 23.102V15.604C33.9872 15.568 34.0172 15.541 34.0502 15.541H43.7072C43.8003 15.5409 43.8914 15.5136 43.9692 15.4624C44.047 15.4112 44.1082 15.3385 44.1452 15.253L45.3622 12.403C45.3884 12.3403 45.3988 12.2722 45.3926 12.2045C45.3863 12.1369 45.3635 12.0718 45.3262 12.015C45.2922 11.9556 45.2429 11.9064 45.1835 11.8725C45.124 11.8386 45.0566 11.8211 44.9882 11.822L44.9892 11.823Z" fill="#0AB2A4"/>
<path d="M170.533 0.008H166.048C165.972 0.00826162 165.899 0.0386568 165.845 0.0925822C165.791 0.146508 165.76 0.219607 165.759 0.296V11.57C165.759 11.633 165.709 11.683 165.646 11.683H151.093C151.078 11.6831 151.064 11.6803 151.05 11.6747C151.036 11.669 151.024 11.6607 151.013 11.6502C151.003 11.6397 150.994 11.6272 150.989 11.6134C150.983 11.5996 150.98 11.5849 150.98 11.57V0.296C150.98 0.219607 150.949 0.146508 150.895 0.0925822C150.841 0.0386568 150.768 0.00826162 150.691 0.008H146.203C146.043 0.008 145.914 0.138 145.914 0.296V27.191C145.914 27.351 146.043 27.48 146.203 27.48H150.691C150.768 27.4797 150.841 27.4492 150.895 27.3951C150.95 27.3409 150.98 27.2676 150.98 27.191V16.108C150.98 16.044 151.03 15.995 151.093 15.995H165.646C165.709 15.995 165.759 16.045 165.759 16.108V27.19C165.759 27.35 165.889 27.479 166.048 27.479H170.536C170.613 27.4787 170.686 27.4482 170.74 27.3941C170.795 27.3399 170.825 27.2666 170.825 27.19V0.296C170.824 0.219252 170.793 0.146004 170.738 0.0921058C170.684 0.0382073 170.61 0.0079928 170.533 0.008V0.008ZM141.171 0.086L140.922 0.07C140.307 0.0255651 139.691 0.00221803 139.074 0C134.439 0 130.631 1.25 127.751 3.719C124.849 6.207 123.379 9.624 123.379 13.874C123.379 18.1 124.832 21.471 127.702 23.886C130.538 26.278 134.33 27.492 138.961 27.492C139.575 27.492 140.199 27.469 140.925 27.412L141.171 27.392C141.244 27.386 141.312 27.3532 141.361 27.2999C141.411 27.2466 141.439 27.1768 141.439 27.104V23.59C141.439 23.5332 141.428 23.477 141.405 23.4249C141.382 23.3728 141.349 23.326 141.307 23.2874C141.266 23.2488 141.216 23.2193 141.163 23.2006C141.109 23.1819 141.052 23.1746 140.995 23.179L140.839 23.189C140.351 23.225 139.91 23.245 139.489 23.245C136.198 23.245 133.501 22.382 131.467 20.684C129.463 19.008 128.445 16.726 128.445 13.906C128.445 11.033 129.47 8.681 131.493 6.923C133.537 5.141 136.214 4.239 139.449 4.239C139.87 4.239 140.325 4.259 140.836 4.299L140.991 4.312C141.104 4.322 141.22 4.282 141.303 4.202C141.345 4.16314 141.378 4.11638 141.401 4.0645C141.423 4.01262 141.436 3.95668 141.436 3.9V0.375C141.438 0.301863 141.412 0.230831 141.362 0.176906C141.313 0.122981 141.244 0.0903846 141.171 0.086V0.086ZM93.2794 0.105H70.8664C70.7979 0.10447 70.7305 0.120989 70.67 0.153065C70.6096 0.185141 70.5581 0.231765 70.5202 0.288727C70.4823 0.345689 70.4591 0.411195 70.4529 0.479332C70.4466 0.547468 70.4575 0.616089 70.4844 0.679L72.0004 4.242C72.0474 4.349 72.1504 4.418 72.2694 4.418H79.1594C79.2224 4.418 79.2724 4.468 79.2724 4.531V18.348C79.2724 18.388 79.2824 18.431 79.2994 18.468L83.3064 27.408C83.3534 27.511 83.4564 27.581 83.5724 27.581H84.0894C84.1659 27.5807 84.2393 27.5502 84.2934 27.4961C84.3476 27.4419 84.3781 27.3686 84.3784 27.292V4.534C84.3784 4.471 84.4284 4.422 84.4914 4.422H93.2794C93.3559 4.42147 93.4292 4.39069 93.4831 4.33636C93.5371 4.28203 93.5674 4.20857 93.5674 4.132V0.395C93.5674 0.235 93.4374 0.106 93.2794 0.106V0.105ZM120.797 23.16H103.991C103.976 23.1601 103.962 23.1573 103.948 23.1517C103.934 23.146 103.922 23.1377 103.911 23.1272C103.901 23.1167 103.892 23.1042 103.887 23.0904C103.881 23.0766 103.878 23.0619 103.878 23.047V15.649C103.878 15.586 103.928 15.536 103.991 15.536H118.651C118.728 15.5357 118.801 15.5052 118.855 15.4511C118.91 15.3969 118.94 15.3236 118.94 15.247V12.116C118.94 12.0393 118.91 11.9656 118.856 11.9113C118.802 11.8569 118.728 11.8263 118.651 11.826H103.991C103.977 11.8261 103.962 11.8233 103.948 11.8178C103.934 11.8122 103.922 11.804 103.912 11.7936C103.901 11.7831 103.893 11.7707 103.887 11.7571C103.881 11.7434 103.878 11.7288 103.878 11.714V4.426C103.878 4.362 103.928 4.313 103.991 4.313H120.197C120.274 4.31274 120.347 4.2822 120.401 4.22806C120.456 4.17392 120.486 4.10057 120.486 4.024V0.29C120.486 0.213434 120.456 0.140078 120.401 0.0859373C120.347 0.0317963 120.274 0.00126357 120.197 0.001H99.1014C99.0248 0.00126357 98.9514 0.0317963 98.8973 0.0859373C98.8432 0.140078 98.8126 0.213434 98.8124 0.29V27.185C98.8124 27.344 98.9424 27.473 99.1014 27.473H120.797C120.874 27.4727 120.947 27.4422 121.001 27.3881C121.056 27.3339 121.086 27.2606 121.086 27.184V23.452C121.087 23.4138 121.079 23.376 121.065 23.3406C121.051 23.3053 121.029 23.2731 121.002 23.246C120.976 23.2189 120.944 23.1973 120.909 23.1826C120.873 23.1678 120.836 23.1601 120.797 23.16Z" fill="#6F6E6E"/>
</g>
<defs>
<clipPath id="clip0_141_2">
<rect width="171" height="28" fill="white"/>
</clipPath>
</defs>
</svg>
