<svg version="1.2" xmlns="http://www.w3.org/2000/svg" viewBox="0 0 1012 235" width="178" height="41">
	<title>ЕЛАМЕД_со_слогоном_01-ai</title>
	<style>
		.s0 { fill: #1a9b7b } 
		.s1 { fill: #269072 } 
	</style>
	<g id="Слой 1">
		<g id="&lt;Group&gt;">
			<path id="&lt;Compound Path&gt;" fill-rule="evenodd" class="s0" d="m178.1 151.3c-3.7 6.3-10.2 10-17.4 10h-139.9c-7.3 0-13.8-3.7-17.4-10c-3.6-6.3-3.6-13.8 0-20l70-121.2c3.6-6.3 10.1-10.1 17.3-10.1c7.3 0 13.8 3.8 17.4 10.1l69.9 121.2c3.7 6.2 3.7 13.7 0.1 20zm-13.1-12.5l-10.6-18.2h-55.6q-8.1 0-8.1-7.5v-7.6h55l-14.5-25.2h-32.4q-8.1 0-8.1-7.6v-7.5h31.7l-27.4-47.6c-1.3-2.2-3.4-2.4-4.3-2.4c-0.8 0-3 0.2-4.3 2.4l-69.9 121.2c-1.3 2.2-0.4 4.2 0 5c0.4 0.7 1.7 2.4 4.3 2.4h139.9c2.6 0 3.8-1.7 4.3-2.4c0.4-0.8 1.2-2.8 0-5z" />
			<g id="&lt;Group&gt;">
				<path id="&lt;Path&gt;" class="s0" d="m240.7 161.3v-96.1h70.7v8.1q0 8.1-8.7 8.1h-43.7v24.1h41.3v7.6q0 8.6-8.8 8.7h-32.5v23.2h43.6q3.8 0 6.3 2.5q2.5 2.5 2.5 6.3v7.5z" />
				<path id="&lt;Compound Path&gt;" fill-rule="evenodd" class="s0" d="m519.2 155q-3 6.3-10.2 6.3h-12.9l49.1-96.1h1.9l49.1 96.1h-12.9q-7.2 0-10.2-6.3l-4.3-8.8h-45.4zm27-53.9l-13.8 29h27.4z" />
				<path id="&lt;Path&gt;" class="s0" d="m739.1 65.2h1.1v96.1h-9.7q-8.6 0-8.7-8.7v-39.9l-30 36.1l-30-36.1v39.9q0 8.7-8.7 8.7h-9.7v-96.1h1.2l47.2 55.5z" />
				<path id="&lt;Path&gt;" class="s0" d="m787.4 161.3v-96.1h70.7v8.1q0 8.1-8.7 8.1h-43.7v24.1h41.2v7.6q0 8.6-8.7 8.7h-32.5v23.2h43.5q3.8 0 6.4 2.5q2.5 2.5 2.5 6.3v7.5z" />
				<path id="&lt;Path&gt;" class="s0" d="m448.9 73.8v87.6h-9.8q-8.6 0-8.6-8.7v-71.2h-32.7h-0.1v7.3c0 13.6-0.8 25.3-2.3 34.6c-1.6 10.2-4.2 18-7.8 23.7c-3.8 6-12 15.1-26.6 17l-2-8.4c-1.3-5.7 1.3-8.8 6.2-11.8c9.5-6 10.6-13.9 12.2-23.4c1.2-7.7 1.9-17.3 2-28.6v-18.1q0-8.6 8.6-8.6h60.9v8.6q0 0 0 0z" />
				<path id="&lt;Compound Path&gt;" fill-rule="evenodd" class="s0" d="m1011.2 153.2v8.2h-105.9v-8.2c0-6.5 5.4-8 7.6-9.3c9.5-6 11.9-13.9 13.5-23.4c1.2-7.7 1.9-17.3 2-28.6v-18.1q0-8.6 8.6-8.6h42.5h9.7c0.2 0 0.4 0 0.6 0h8.1v8.6q0 0 0 0v71.3h4.6q8.7 0 8.7 8.1zm-31.7-8.1v-63.6h-32.7h-0.1v7.3c0 13.6-0.8 25.3-2.3 34.6c-1.5 9.1-3.7 16.2-6.7 21.7z" />
			</g>
		</g>
		<g id="&lt;Group&gt;">
			<path id="&lt;Path&gt;" class="s1" d="m262.6 233.8v-14.7q-2.3 1.4-5.3 2.4q-3.1 1-5.4 1q-5.1 0-8.1-2.6q-3.1-2.6-3.1-7.5v-13h3.9v12.3q0 3.3 2 5.3q2 1.9 5.6 1.9q4.7 0 10.4-3.4v-16.1h3.9v34.4z" />
			<path id="&lt;Path&gt;" class="s1" d="m285.4 233.8v-30.9h-11.6v-3.5h27.1v3.5h-11.6v30.9z" />
			<path id="&lt;Compound Path&gt;" fill-rule="evenodd" class="s1" d="m336.8 229.2q-4.9 5.2-12.6 5.2q-7.7 0-12.6-5.2q-5-5.2-5-12.6q0-7.3 5-12.6q5-5.2 12.7-5.2q7.7 0 12.6 5.2q4.9 5.2 4.9 12.6q0 7.4-5 12.6zm-22.3-2.5q3.9 4.1 9.8 4.1q5.8 0 9.7-4.1q3.8-4.1 3.8-10.1q0-5.9-3.9-10.1q-3.9-4.1-9.7-4.1q-5.9 0-9.7 4.1q-3.8 4.1-3.8 10.1q0 6 3.8 10.1z" />
			<path id="&lt;Compound Path&gt;" fill-rule="evenodd" class="s1" d="m350 233.8v-34.4h24.8v3.5h-20.9v10.6h10.2q5.8 0 9.5 2.5q3.6 2.6 3.6 7.6q0 4.9-3.4 7.6q-3.4 2.7-9.3 2.6zm3.9-3.5h10.3q9.1 0 9.1-6.9q0-3.2-2.5-4.8q-2.4-1.6-6.8-1.6h-10.1z" />
			<path id="&lt;Compound Path&gt;" fill-rule="evenodd" class="s1" d="m415.3 233.8v-34.4h3.9v34.4zm-30.4 0v-34.4h3.9v13.3h8.7q6 0 9.7 2.5q3.7 2.5 3.7 7.7q0 5-3.5 8q-3.4 2.9-9.3 2.9zm3.9-3.5h9.2q4.2 0 6.6-1.9q2.4-1.8 2.4-5.4q0-3.3-2.4-5.1q-2.5-1.7-6.9-1.7h-8.9z" />
			<path id="&lt;Compound Path&gt;" fill-rule="evenodd" class="s1" d="m443.8 233.8v-34.4h14.6q6.1 0 9 3q2.3 2.3 2.3 5.6q0 5.7-5.5 8q7.4 2.2 7.4 8.4q0 4.4-3.4 6.9q-3.4 2.6-9.1 2.5zm3.8-3.4h11.6q3.9 0 6.2-1.7q2.3-1.6 2.3-4.6q0-2.9-2.4-4.4q-2.3-1.5-6.8-1.5h-10.9zm0-15.6h10.2q3.6 0 5.8-1.6q2.1-1.7 2.1-4.7q0-2.6-2-4.1q-2-1.5-5.6-1.5h-10.5z" />
			<path id="&lt;Compound Path&gt;" fill-rule="evenodd" class="s1" d="m509.8 233.8v-34.4h3.8v34.4zm-30.4 0v-34.4h3.9v13.3h8.7q6 0 9.7 2.5q3.7 2.5 3.7 7.7q0 5-3.5 8q-3.4 2.9-9.3 2.9zm3.9-3.5h9.2q4.2 0 6.6-1.9q2.4-1.8 2.4-5.4q0-3.3-2.4-5.1q-2.5-1.7-6.8-1.7h-9z" />
			<path id="&lt;Path&gt;" class="s1" d="m553.9 234.4q-7.4 0-12.3-5.1q-5-5.2-5-12.7q0-7.4 5-12.6q5-5.2 12.5-5.2q4.3 0 7.4 1.4q3 1.4 5.9 4.1l-2.5 2.8q-5-4.7-10.9-4.7q-5.7 0-9.5 4.1q-3.8 4.1-3.8 10.1q0 6 3.8 10.1q3.9 4.1 9.5 4.1q3.4 0 5.9-1.2q2.6-1.2 5.3-3.7l2.5 2.7q-2.9 2.9-6.1 4.4q-3.2 1.4-7.7 1.4z" />
			<path id="&lt;Path&gt;" class="s1" d="m574.5 233.8v-34.4h4l12.5 18.8l12.6-18.8h3.9v34.4h-3.9v-27.9l-12.5 18.5h-0.2l-12.6-18.4v27.8z" />
			<path id="&lt;Compound Path&gt;" fill-rule="evenodd" class="s1" d="m645.9 229.2q-4.9 5.2-12.6 5.2q-7.7 0-12.6-5.2q-5-5.2-5-12.6q0-7.3 5-12.6q5-5.2 12.7-5.2q7.7 0 12.6 5.2q4.9 5.2 4.9 12.6q0 7.4-5 12.6zm-22.3-2.5q3.9 4.1 9.8 4.1q5.8 0 9.6-4.1q3.9-4.1 3.9-10.1q0-5.9-3.9-10.1q-3.9-4.1-9.7-4.1q-5.9 0-9.7 4.1q-3.8 4.1-3.8 10.1q0 6 3.8 10.1z" />
			<path id="&lt;Path&gt;" class="s1" d="m659.1 233.8v-34.4h22v3.5h-18.1v30.9z" />
			<path id="&lt;Path&gt;" class="s1" d="m687.5 234.2q-2.3 0-4.5-0.8l0.8-3.1q1.1 0.4 3.1 0.4q0.9 0 1.7-0.3q0.8-0.3 1.9-1.7q1.1-1.5 1.8-4q0.7-2.6 1.2-7.5q0.5-4.9 0.5-11.6v-6.2h22.3v34.4h-3.9v-30.9h-14.7v3.8q0 7-0.5 12.1q-0.6 5.1-1.5 8q-0.9 3-2.3 4.7q-1.4 1.7-2.8 2.2q-1.3 0.5-3.1 0.5z" />
			<path id="&lt;Path&gt;" class="s1" d="m726.1 233.8v-34.4h3.8v28.6l20.6-28.6h3.7v34.4h-3.8v-28.6l-20.5 28.6z" />
			<path id="&lt;Compound Path&gt;" fill-rule="evenodd" class="s1" d="m778.8 233.8v-34.4h24.7v3.5h-20.9v10.6h10.2q5.9 0 9.5 2.5q3.6 2.6 3.6 7.6q0 4.9-3.4 7.6q-3.4 2.7-9.3 2.6zm3.9-3.5h10.3q9.1 0 9.1-6.9q0-3.2-2.4-4.8q-2.5-1.6-6.9-1.6h-10.1z" />
			<path id="&lt;Compound Path&gt;" fill-rule="evenodd" class="s1" d="m842.3 229.2q-5 5.2-12.7 5.2q-7.7 0-12.6-5.2q-4.9-5.2-4.9-12.6q0-7.3 5-12.6q4.9-5.2 12.6-5.2q7.7 0 12.6 5.2q5 5.2 5 12.6q0 7.4-5 12.6zm-22.3-2.5q3.9 4.1 9.7 4.1q5.9 0 9.7-4.1q3.8-4.1 3.8-10.1q0-5.9-3.8-10.1q-3.9-4.1-9.8-4.1q-5.8 0-9.6 4.1q-3.9 4.1-3.9 10.1q0 6 3.9 10.1z" />
			<path id="&lt;Path&gt;" class="s1" d="m854.8 234.2q-2.3 0-4.4-0.8l0.8-3.1q1 0.4 3 0.4q1 0 1.8-0.3q0.8-0.3 1.9-1.7q1-1.5 1.7-4q0.7-2.6 1.2-7.5q0.5-4.9 0.5-11.6v-6.2h22.4v34.4h-3.9v-30.9h-14.7v3.8q0 7-0.6 12.1q-0.5 5.1-1.5 8q-0.9 3-2.3 4.7q-1.4 1.7-2.7 2.2q-1.4 0.5-3.2 0.5z" />
			<path id="&lt;Compound Path&gt;" fill-rule="evenodd" class="s1" d="m893.4 233.8v-34.4h3.9v13.3h8.7q6 0 9.7 2.5q3.7 2.5 3.7 7.7q0 5-3.5 8q-3.4 2.9-9.3 2.9zm3.9-3.5h9.2q4.2 0 6.6-1.9q2.4-1.8 2.4-5.4q0-3.3-2.4-5.1q-2.5-1.7-6.8-1.7h-9z" />
			<path id="&lt;Path&gt;" class="s1" d="m926.5 233.8v-34.4h3.9v30.9h16.4v-30.9h3.9v30.9h16.5v-30.9h3.9v34.4z" />
			<path id="&lt;Path&gt;" class="s1" d="m980.8 233.8v-34.4h25v3.5h-21.1v11.8h18.8v3.5h-18.8v12.1h21.3v3.5z" />
		</g>
	</g>
</svg>