<?xml version="1.0" encoding="UTF-8"?> <svg xmlns="http://www.w3.org/2000/svg" width="279" height="192" viewBox="0 0 279 192" fill="red"> <path fill-rule="evenodd" clip-rule="evenodd" d="M96.75 4C98.9458 4 101.112 4.0669 103.25 4.2002C125.966 5.6167 145.55 14.5498 162 31C180 49.0332 189 70.7832 189 96.25C189 121.75 180 143.5 162 161.5C144 179.5 122.25 188.5 96.75 188.5C71.2832 188.5 49.5332 179.5 31.5 161.5C13.5 143.5 4.5 121.75 4.5 96.25C4.5 70.7832 13.5 49.0332 31.5 31C47.9805 14.5498 67.564 5.6167 90.25 4.2002C92.3906 4.0669 94.5571 4 96.75 4Z" fill="white"></path> <path fill-rule="evenodd" clip-rule="evenodd" d="M167.348 145.3H164.348V122.3L150.499 108.45L152.598 106.35L165.848 119.6L179.098 106.35L181.199 108.45L167.348 122.3V145.3ZM62.4487 125.65C62.4521 120.239 64.3686 115.622 68.1987 111.8C72.0219 107.969 76.622 106.053 81.9985 106.05C87.4091 106.054 92.0258 107.971 95.8486 111.8C99.6782 115.622 101.595 120.239 101.599 125.65C101.596 131.026 99.6792 135.626 95.8486 139.45C92.0258 143.279 87.4091 145.196 81.9985 145.2C76.622 145.197 72.0219 143.28 68.1987 139.45C64.3676 135.626 62.4511 131.026 62.4487 125.65ZM70.2983 113.9C67.0615 117.144 65.4448 121.061 65.4487 125.65C65.4458 130.207 67.0625 134.107 70.2983 137.35C73.5415 140.586 77.4414 142.202 81.9985 142.2C86.5879 142.203 90.5044 140.587 93.7485 137.35C96.9843 134.106 98.601 130.207 98.5986 125.65C98.602 121.061 96.9853 117.144 93.7485 113.9C90.5044 110.663 86.5879 109.046 81.9985 109.05C77.4414 109.047 73.5415 110.664 70.2983 113.9ZM53.0483 111.8C54.3676 113.117 55.4594 114.525 56.3237 116.025L53.7734 117.6C53.0337 116.279 52.0918 115.046 50.9487 113.9C47.7046 110.663 43.7876 109.046 39.1987 109.05C34.6416 109.047 30.7417 110.664 27.4985 113.9C24.2617 117.144 22.645 121.061 22.6484 125.65C22.646 130.207 24.2627 134.107 27.4985 137.35C30.7417 140.586 34.6416 142.202 39.1987 142.2C43.7876 142.203 47.7046 140.587 50.9487 137.35C51.8242 136.473 52.5825 135.548 53.2236 134.575L55.6484 136.3C54.914 137.403 54.0473 138.453 53.0483 139.45C49.226 143.279 44.6093 145.196 39.1987 145.2C33.8217 145.197 29.2221 143.28 25.3984 139.45C21.5678 135.626 19.6513 131.026 19.6484 125.65C19.6518 120.239 21.5688 115.622 25.3984 111.8C29.2221 107.969 33.8217 106.053 39.1987 106.05C44.6093 106.054 49.226 107.971 53.0483 111.8ZM119.548 105.3C119.615 105.3 119.682 105.3 119.749 105.3H138.999V108.3H119.749C119.682 108.3 119.615 108.3 119.548 108.3H119.499C117.375 108.297 115.559 109.047 114.048 110.55C112.546 112.06 111.796 113.877 111.798 116C111.793 118.202 112.543 120.027 114.048 121.475L114.074 121.5C115.08 122.535 116.246 123.235 117.574 123.6C117.642 123.602 117.708 123.61 117.773 123.625C117.803 123.632 117.837 123.64 117.874 123.65L118.624 123.75H120.398C120.449 123.746 120.5 123.746 120.548 123.75H131.349C131.382 123.75 131.415 123.75 131.449 123.75H132.398C132.454 123.747 132.513 123.747 132.574 123.75C134.974 124.018 137.082 125.043 138.898 126.825L138.923 126.85C140.974 128.98 142 131.496 141.999 134.4C141.989 137.417 140.956 139.95 138.898 142C137.349 143.556 135.565 144.548 133.548 144.975L133.599 144.95C132.921 145.112 132.205 145.195 131.449 145.2H111.199V142.2H131.449C131.959 142.204 132.442 142.154 132.898 142.05C132.917 142.042 132.933 142.033 132.949 142.025C134.398 141.719 135.682 141.011 136.798 139.9C138.274 138.417 139.008 136.583 138.999 134.4C138.998 132.315 138.265 130.507 136.798 128.975L136.773 128.95C135.462 127.681 133.946 126.947 132.224 126.75H131.449C131.415 126.75 131.382 126.75 131.349 126.75H120.699C120.315 126.786 119.932 126.803 119.548 126.8C119.183 126.802 118.8 126.785 118.398 126.75H118.374C118.333 126.752 118.291 126.752 118.249 126.75C117.854 126.712 117.479 126.653 117.124 126.575C117.036 126.555 116.953 126.529 116.874 126.5C115.001 126.021 113.359 125.062 111.949 123.625L111.923 123.6C109.845 121.586 108.803 119.052 108.798 116C108.801 113.057 109.851 110.54 111.949 108.45C114.039 106.353 116.555 105.303 119.499 105.3H119.548Z" fill="#2061CD"></path> <path fill-rule="evenodd" clip-rule="evenodd" d="M189.797 106.2H192.797V109.075C192.823 109.062 192.847 109.045 192.873 109.025L192.898 109C194.911 107.466 197.343 106.699 200.198 106.7C203.064 106.696 205.489 107.463 207.472 109C208.109 109.49 208.651 110.007 209.097 110.55C209.532 110.016 210.057 109.507 210.672 109.025L210.698 109C212.71 107.466 215.143 106.699 217.998 106.7C220.864 106.696 223.289 107.463 225.273 109C227.037 110.358 228.07 111.95 228.373 113.775C228.389 113.868 228.397 113.96 228.398 114.05V144.7H225.398V114.225C225.146 113.155 224.488 112.214 223.422 111.4C221.94 110.271 220.131 109.704 217.998 109.7C215.865 109.701 214.04 110.259 212.523 111.375L212.498 111.4C211.492 112.198 210.859 113.115 210.597 114.15V144.7H207.597V114.225C207.346 113.155 206.688 112.214 205.623 111.4C204.14 110.271 202.332 109.704 200.198 109.7C198.065 109.701 196.24 110.259 194.722 111.375L194.698 111.4C193.674 112.212 193.041 113.146 192.797 114.2V144.7H189.797V106.2ZM273.797 126.15V125.2C273.702 120.81 272.085 117.043 268.948 113.9C265.704 110.663 261.787 109.046 257.198 109.05C252.641 109.047 248.741 110.664 245.498 113.9C242.26 117.144 240.644 121.061 240.648 125.65C240.645 130.207 242.261 134.107 245.498 137.35C248.741 140.586 252.641 142.202 257.198 142.2C261.787 142.203 265.704 140.587 268.948 137.35C272.083 134.209 273.7 130.476 273.797 126.15ZM273.797 106.2H276.797V144.7H273.797V136.075C273.029 137.262 272.112 138.387 271.047 139.45C267.225 143.279 262.608 145.196 257.198 145.2C251.821 145.197 247.221 143.28 243.398 139.45C239.567 135.626 237.65 131.026 237.648 125.65C237.651 120.239 239.568 115.622 243.398 111.8C247.221 107.969 251.821 106.053 257.198 106.05C262.608 106.054 267.225 107.971 271.047 111.8C272.112 112.863 273.029 113.988 273.797 115.175V106.2Z" fill="#2061CD"></path> <path fill-rule="evenodd" clip-rule="evenodd" d="M240.05 152.9C240.083 152.934 240.1 152.967 240.1 153V160.2C240.1 160.233 240.083 160.267 240.05 160.3C240.017 160.333 239.984 160.366 239.951 160.4C239.884 160.4 239.8 160.4 239.701 160.4C239.6 160.434 239.467 160.45 239.3 160.45C239.167 160.45 239.05 160.434 238.951 160.4C238.85 160.4 238.767 160.4 238.701 160.4C238.667 160.366 238.634 160.333 238.6 160.3C238.567 160.267 238.55 160.233 238.55 160.2V156.2C238.55 156.066 238.55 155.917 238.55 155.75C238.55 155.616 238.567 155.483 238.6 155.35H238.55C238.55 155.417 238.517 155.483 238.451 155.55C238.417 155.616 238.384 155.7 238.35 155.8C238.284 155.866 238.217 155.95 238.151 156.05C238.117 156.116 238.067 156.2 238 156.3L235.35 160.2C235.317 160.233 235.284 160.267 235.25 160.3C235.217 160.333 235.184 160.366 235.151 160.4C235.083 160.4 235.017 160.417 234.951 160.45C234.884 160.45 234.784 160.45 234.651 160.45C234.484 160.45 234.367 160.434 234.3 160.4C234.201 160.4 234.117 160.4 234.05 160.4C234.017 160.366 233.984 160.333 233.951 160.3C233.951 160.267 233.951 160.233 233.951 160.2V153C233.951 152.967 233.951 152.934 233.951 152.9C233.984 152.866 234.034 152.85 234.1 152.85C234.167 152.816 234.25 152.8 234.35 152.8C234.451 152.8 234.567 152.8 234.701 152.8C234.867 152.8 234.984 152.8 235.05 152.8C235.151 152.8 235.234 152.816 235.3 152.85C235.367 152.85 235.417 152.866 235.451 152.9C235.451 152.934 235.451 152.967 235.451 153V157.05C235.451 157.15 235.451 157.283 235.451 157.45C235.451 157.583 235.451 157.717 235.451 157.85C235.517 157.717 235.6 157.566 235.701 157.4C235.8 157.267 235.901 157.116 236 156.95L238.651 153C238.684 152.967 238.717 152.934 238.75 152.9C238.784 152.866 238.833 152.85 238.901 152.85C238.934 152.816 238.984 152.8 239.05 152.8C239.151 152.8 239.25 152.8 239.35 152.8C239.517 152.8 239.651 152.8 239.75 152.8C239.817 152.8 239.884 152.816 239.951 152.85C240.017 152.85 240.05 152.866 240.05 152.9ZM244.701 154.15C244.8 153.884 244.967 153.65 245.201 153.45C245.434 153.25 245.734 153.1 246.1 153C246.434 152.866 246.917 152.8 247.55 152.8H249.401C249.534 152.8 249.651 152.85 249.75 152.95C249.817 153.017 249.85 153.134 249.85 153.3V160.2C249.85 160.233 249.833 160.267 249.8 160.3C249.8 160.333 249.767 160.366 249.701 160.4C249.634 160.4 249.55 160.4 249.451 160.4C249.35 160.434 249.234 160.45 249.1 160.45C248.934 160.45 248.8 160.434 248.701 160.4C248.634 160.4 248.567 160.4 248.5 160.4C248.434 160.366 248.384 160.333 248.35 160.3C248.317 160.267 248.3 160.233 248.3 160.2V157.35H247.75C247.517 157.35 247.333 157.384 247.201 157.45C247.1 157.483 247 157.55 246.901 157.65C246.8 157.75 246.717 157.866 246.651 158C246.55 158.167 246.467 158.35 246.401 158.55L245.85 160.2C245.817 160.233 245.784 160.267 245.75 160.3C245.717 160.333 245.684 160.366 245.651 160.4C245.583 160.4 245.484 160.4 245.35 160.4C245.25 160.434 245.117 160.45 244.951 160.45C244.784 160.45 244.651 160.434 244.55 160.4C244.451 160.4 244.367 160.384 244.3 160.35C244.234 160.35 244.201 160.333 244.201 160.3C244.201 160.267 244.201 160.233 244.201 160.2C244.201 160.167 244.201 160.116 244.201 160.05C244.201 160.017 244.234 159.934 244.3 159.8L244.85 158.3C244.917 158.134 245 157.967 245.1 157.8C245.167 157.667 245.25 157.533 245.35 157.4C245.451 157.3 245.55 157.217 245.651 157.15C245.75 157.05 245.867 156.983 246 156.95C245.767 156.884 245.55 156.8 245.35 156.7C245.184 156.566 245.034 156.434 244.901 156.3C244.767 156.134 244.667 155.95 244.6 155.75C244.534 155.55 244.5 155.333 244.5 155.1C244.5 154.733 244.567 154.417 244.701 154.15ZM247.5 156.2H248.3V154H247.55C247.217 154 246.967 154.033 246.8 154.1C246.634 154.134 246.5 154.2 246.401 154.3C246.3 154.4 246.217 154.517 246.151 154.65C246.117 154.783 246.1 154.934 246.1 155.1C246.1 155.267 246.117 155.417 246.151 155.55C246.217 155.684 246.3 155.8 246.401 155.9C246.5 156 246.634 156.066 246.8 156.1C246.967 156.167 247.201 156.2 247.5 156.2ZM197.3 153V160.2C197.3 160.233 197.284 160.267 197.25 160.3C197.217 160.333 197.184 160.366 197.151 160.4C197.083 160.4 197 160.4 196.901 160.4C196.8 160.434 196.667 160.45 196.5 160.45C196.367 160.45 196.25 160.434 196.151 160.4C196.05 160.4 195.967 160.4 195.901 160.4C195.867 160.366 195.833 160.333 195.8 160.3C195.767 160.267 195.75 160.233 195.75 160.2V156.2C195.75 156.066 195.75 155.917 195.75 155.75C195.75 155.616 195.767 155.483 195.8 155.35H195.75C195.75 155.417 195.717 155.483 195.651 155.55C195.617 155.616 195.583 155.7 195.55 155.8C195.484 155.866 195.417 155.95 195.35 156.05C195.317 156.116 195.267 156.2 195.201 156.3L192.55 160.2C192.517 160.233 192.484 160.267 192.451 160.3C192.417 160.333 192.384 160.366 192.35 160.4C192.284 160.4 192.217 160.417 192.151 160.45C192.083 160.45 191.984 160.45 191.85 160.45C191.684 160.45 191.567 160.434 191.5 160.4C191.401 160.4 191.317 160.4 191.25 160.4C191.217 160.366 191.184 160.333 191.151 160.3C191.151 160.267 191.151 160.233 191.151 160.2V153C191.151 152.967 191.151 152.934 191.151 152.9C191.184 152.866 191.234 152.85 191.3 152.85C191.367 152.816 191.451 152.8 191.55 152.8C191.651 152.8 191.767 152.8 191.901 152.8C192.067 152.8 192.184 152.8 192.25 152.8C192.35 152.8 192.434 152.816 192.5 152.85C192.567 152.85 192.617 152.866 192.651 152.9C192.651 152.934 192.651 152.967 192.651 153V157.05C192.651 157.15 192.651 157.283 192.651 157.45C192.651 157.583 192.651 157.717 192.651 157.85C192.717 157.717 192.8 157.566 192.901 157.4C193 157.267 193.1 157.116 193.201 156.95L195.85 153C195.884 152.967 195.917 152.934 195.951 152.9C195.984 152.866 196.034 152.85 196.1 152.85C196.134 152.816 196.184 152.8 196.25 152.8C196.35 152.8 196.451 152.8 196.55 152.8C196.717 152.8 196.85 152.8 196.951 152.8C197.017 152.8 197.083 152.816 197.151 152.85C197.217 152.85 197.25 152.866 197.25 152.9C197.284 152.934 197.3 152.967 197.3 153ZM202.75 152.8C202.85 152.8 202.917 152.816 202.951 152.85C203.017 152.884 203.067 152.917 203.1 152.95C203.134 152.983 203.151 153.017 203.151 153.05L203.651 154.7C203.717 154.9 203.784 155.083 203.85 155.25C203.917 155.384 204 155.5 204.1 155.6C204.201 155.7 204.317 155.767 204.451 155.8C204.583 155.833 204.75 155.85 204.951 155.85H205.25V153C205.25 152.967 205.267 152.934 205.3 152.9C205.3 152.866 205.333 152.85 205.401 152.85C205.467 152.816 205.534 152.8 205.6 152.8C205.701 152.8 205.833 152.8 206 152.8C206.134 152.8 206.25 152.8 206.35 152.8C206.451 152.8 206.534 152.816 206.6 152.85C206.667 152.85 206.701 152.866 206.701 152.9C206.734 152.934 206.75 152.967 206.75 153V155.85H207.05C207.217 155.85 207.367 155.833 207.5 155.8C207.634 155.767 207.75 155.7 207.85 155.6C207.984 155.5 208.083 155.366 208.151 155.2C208.217 155.066 208.284 154.884 208.35 154.65L208.85 153.05C208.85 153.017 208.867 152.983 208.901 152.95C208.934 152.917 208.967 152.884 209 152.85C209.067 152.816 209.151 152.8 209.25 152.8C209.35 152.8 209.484 152.8 209.651 152.8C209.817 152.8 209.951 152.8 210.05 152.8C210.151 152.8 210.234 152.816 210.3 152.85C210.333 152.85 210.367 152.866 210.401 152.9C210.434 152.934 210.451 152.967 210.451 153C210.451 153.066 210.434 153.134 210.401 153.2C210.401 153.267 210.367 153.366 210.3 153.5L209.85 154.85C209.784 155.083 209.701 155.3 209.6 155.5C209.5 155.667 209.417 155.8 209.35 155.9C209.217 156.033 209.1 156.15 209 156.25C208.867 156.316 208.734 156.384 208.6 156.45C208.767 156.517 208.917 156.583 209.05 156.65C209.184 156.75 209.3 156.866 209.401 157C209.5 157.134 209.6 157.3 209.701 157.5C209.8 157.7 209.901 157.934 210 158.2L210.5 159.7C210.534 159.767 210.567 159.833 210.6 159.9C210.6 159.934 210.617 159.983 210.651 160.05V160.1C210.651 160.134 210.651 160.167 210.651 160.2C210.651 160.233 210.634 160.267 210.6 160.3C210.6 160.333 210.567 160.366 210.5 160.4C210.434 160.4 210.35 160.4 210.25 160.4C210.151 160.434 210.017 160.45 209.85 160.45C209.684 160.45 209.55 160.434 209.451 160.4C209.35 160.4 209.267 160.4 209.201 160.4C209.134 160.366 209.083 160.333 209.05 160.3C209.017 160.267 209 160.217 209 160.15L208.451 158.45C208.384 158.184 208.3 157.983 208.201 157.85C208.1 157.684 208 157.55 207.901 157.45C207.8 157.35 207.684 157.267 207.55 157.2C207.384 157.167 207.217 157.15 207.05 157.15H206.75V160.2C206.75 160.233 206.734 160.267 206.701 160.3C206.701 160.333 206.667 160.366 206.6 160.4C206.534 160.4 206.451 160.4 206.35 160.4C206.25 160.434 206.134 160.45 206 160.45C205.833 160.45 205.701 160.434 205.6 160.4C205.534 160.4 205.467 160.4 205.401 160.4C205.333 160.366 205.3 160.333 205.3 160.3C205.267 160.267 205.25 160.233 205.25 160.2V157.15H204.951C204.75 157.15 204.583 157.184 204.451 157.25C204.284 157.283 204.151 157.35 204.05 157.45C203.951 157.55 203.85 157.684 203.75 157.85C203.684 158.017 203.617 158.217 203.55 158.45L203 160.15C202.967 160.217 202.951 160.267 202.951 160.3C202.917 160.333 202.867 160.366 202.8 160.4C202.734 160.4 202.651 160.4 202.55 160.4C202.451 160.434 202.317 160.45 202.151 160.45C201.984 160.45 201.85 160.434 201.75 160.4C201.651 160.4 201.567 160.4 201.5 160.4C201.434 160.366 201.401 160.333 201.401 160.3C201.367 160.267 201.35 160.233 201.35 160.2C201.35 160.167 201.35 160.134 201.35 160.1V160.05C201.384 159.983 201.401 159.934 201.401 159.9C201.401 159.833 201.417 159.767 201.451 159.7L202 158.2C202.1 157.934 202.201 157.7 202.3 157.5C202.401 157.3 202.5 157.134 202.6 157C202.701 156.866 202.817 156.767 202.951 156.7C203.083 156.6 203.234 156.517 203.401 156.45C203.267 156.417 203.134 156.366 203 156.3C202.901 156.2 202.8 156.1 202.701 156C202.6 155.866 202.5 155.717 202.401 155.55C202.3 155.35 202.217 155.116 202.151 154.85L201.651 153.5C201.617 153.366 201.6 153.267 201.6 153.2C201.567 153.134 201.55 153.066 201.55 153C201.55 152.967 201.567 152.934 201.6 152.9C201.634 152.866 201.667 152.85 201.701 152.85C201.767 152.816 201.85 152.8 201.951 152.8C202.05 152.8 202.184 152.8 202.35 152.8C202.517 152.8 202.651 152.8 202.75 152.8ZM219.05 152.85C219.083 152.884 219.117 152.917 219.151 152.95C219.151 152.983 219.167 153.05 219.201 153.15C219.201 153.217 219.201 153.316 219.201 153.45C219.201 153.55 219.201 153.634 219.201 153.7C219.167 153.767 219.151 153.833 219.151 153.9C219.117 153.934 219.083 153.967 219.05 154C219.017 154.033 218.984 154.05 218.951 154.05H216.25V155.9H218.55C218.583 155.9 218.617 155.9 218.651 155.9C218.684 155.934 218.701 155.967 218.701 156C218.734 156.066 218.75 156.134 218.75 156.2C218.784 156.267 218.8 156.35 218.8 156.45C218.8 156.583 218.784 156.684 218.75 156.75C218.75 156.816 218.734 156.884 218.701 156.95C218.701 156.983 218.684 157.017 218.651 157.05C218.617 157.05 218.583 157.05 218.55 157.05H216.25V159.2H219C219.034 159.2 219.067 159.217 219.1 159.25C219.134 159.25 219.151 159.283 219.151 159.35C219.184 159.384 219.201 159.434 219.201 159.5C219.201 159.6 219.201 159.7 219.201 159.8C219.201 159.9 219.201 160 219.201 160.1C219.201 160.167 219.184 160.217 219.151 160.25C219.151 160.316 219.134 160.35 219.1 160.35C219.067 160.384 219.034 160.4 219 160.4H215.201C215.067 160.4 214.951 160.366 214.85 160.3C214.784 160.2 214.75 160.066 214.75 159.9V153.3C214.75 153.134 214.784 153.017 214.85 152.95C214.951 152.85 215.067 152.8 215.201 152.8H218.951C218.984 152.8 219.017 152.816 219.05 152.85ZM224.85 152.85C224.917 152.884 224.967 152.9 225 152.9C225 152.934 225 152.983 225 153.05V155.8H227.85V153.05C227.85 152.983 227.867 152.934 227.901 152.9C227.934 152.9 227.967 152.884 228 152.85C228.067 152.816 228.151 152.8 228.25 152.8C228.35 152.8 228.484 152.8 228.651 152.8C228.784 152.8 228.901 152.8 229 152.8C229.1 152.8 229.184 152.816 229.25 152.85C229.284 152.884 229.317 152.9 229.35 152.9C229.384 152.934 229.401 152.983 229.401 153.05V160.2C229.401 160.233 229.384 160.267 229.35 160.3C229.317 160.333 229.284 160.35 229.25 160.35C229.184 160.384 229.1 160.4 229 160.4C228.901 160.434 228.784 160.45 228.651 160.45C228.484 160.45 228.35 160.434 228.25 160.4C228.151 160.4 228.067 160.384 228 160.35C227.967 160.35 227.934 160.333 227.901 160.3C227.867 160.267 227.85 160.233 227.85 160.2V157.1H225V160.2C225 160.233 225 160.267 225 160.3C224.967 160.333 224.917 160.35 224.85 160.35C224.784 160.384 224.701 160.4 224.6 160.4C224.534 160.434 224.417 160.45 224.25 160.45C224.117 160.45 224 160.434 223.901 160.4C223.8 160.4 223.717 160.384 223.651 160.35C223.583 160.35 223.534 160.333 223.5 160.3C223.5 160.267 223.5 160.233 223.5 160.2V153.05C223.5 152.983 223.5 152.934 223.5 152.9C223.534 152.9 223.583 152.884 223.651 152.85C223.717 152.816 223.8 152.8 223.901 152.8C224 152.8 224.117 152.8 224.25 152.8C224.417 152.8 224.534 152.8 224.6 152.8C224.701 152.8 224.784 152.816 224.85 152.85ZM173.1 155.65C173 156.083 172.916 156.467 172.85 156.8C172.784 157.134 172.717 157.434 172.651 157.7C172.584 157.934 172.517 158.15 172.451 158.35C172.383 158.517 172.3 158.667 172.201 158.8C172.133 158.934 172.067 159.05 172 159.15H175.05V154.05H173.3C173.201 154.65 173.133 155.184 173.1 155.65ZM172.25 152.8H176.151C176.284 152.8 176.383 152.85 176.451 152.95C176.55 153.017 176.6 153.134 176.6 153.3V159.15H177.25C177.35 159.15 177.416 159.184 177.451 159.25C177.484 159.283 177.5 159.35 177.5 159.45V162.2C177.5 162.233 177.5 162.267 177.5 162.3C177.467 162.333 177.434 162.35 177.401 162.35C177.334 162.384 177.267 162.4 177.201 162.4C177.1 162.4 176.984 162.4 176.85 162.4C176.717 162.4 176.6 162.4 176.5 162.4C176.434 162.4 176.368 162.384 176.3 162.35C176.267 162.35 176.234 162.333 176.201 162.3C176.166 162.267 176.151 162.233 176.151 162.2V160.4H171.1V162.2C171.1 162.233 171.1 162.267 171.1 162.3C171.067 162.333 171.034 162.35 171 162.35C170.934 162.384 170.85 162.4 170.75 162.4C170.684 162.4 170.584 162.4 170.451 162.4C170.317 162.4 170.201 162.4 170.1 162.4C170.034 162.4 169.967 162.384 169.901 162.35C169.868 162.35 169.834 162.333 169.8 162.3C169.767 162.267 169.75 162.233 169.75 162.2V159.45C169.75 159.35 169.784 159.267 169.85 159.2C169.883 159.167 169.951 159.15 170.05 159.15H170.401C170.5 159.017 170.584 158.884 170.651 158.75C170.75 158.616 170.834 158.45 170.901 158.25C171 158.05 171.084 157.816 171.151 157.55C171.217 157.283 171.284 156.95 171.35 156.55C171.451 156.184 171.534 155.733 171.6 155.2C171.666 154.667 171.75 154.033 171.85 153.3C171.85 153.134 171.883 153.017 171.951 152.95C172.017 152.85 172.118 152.8 172.25 152.8ZM183.85 155.95C184.084 155.95 184.267 155.917 184.401 155.85C184.534 155.816 184.633 155.75 184.701 155.65C184.8 155.55 184.868 155.45 184.901 155.35C184.934 155.217 184.951 155.083 184.951 154.95C184.951 154.783 184.934 154.634 184.901 154.5C184.868 154.4 184.8 154.3 184.701 154.2C184.6 154.134 184.484 154.083 184.35 154.05C184.184 153.983 183.984 153.95 183.75 153.95H183V155.95H183.85ZM183.85 152.8C184.317 152.8 184.701 152.85 185 152.95C185.334 153.017 185.618 153.134 185.85 153.3C186.05 153.467 186.217 153.667 186.35 153.9C186.451 154.134 186.5 154.417 186.5 154.75C186.5 154.917 186.484 155.083 186.451 155.25C186.384 155.417 186.317 155.566 186.25 155.7C186.151 155.833 186.034 155.95 185.901 156.05C185.767 156.15 185.618 156.233 185.451 156.3C185.684 156.333 185.883 156.4 186.05 156.5C186.25 156.6 186.417 156.733 186.55 156.9C186.684 157.033 186.784 157.217 186.85 157.45C186.917 157.65 186.951 157.884 186.951 158.15C186.951 158.417 186.917 158.65 186.85 158.85C186.784 159.083 186.684 159.283 186.55 159.45C186.417 159.616 186.267 159.75 186.1 159.85C185.901 159.983 185.701 160.083 185.5 160.15C185.267 160.25 185.034 160.316 184.8 160.35C184.534 160.384 184.25 160.4 183.951 160.4H181.951C181.817 160.4 181.701 160.366 181.6 160.3C181.534 160.2 181.5 160.066 181.5 159.9V153.3C181.5 153.134 181.534 153.017 181.6 152.95C181.701 152.85 181.817 152.8 181.951 152.8H183.85ZM185 157.35C184.901 157.25 184.767 157.184 184.6 157.15C184.401 157.083 184.166 157.05 183.901 157.05H183V159.2H184.1C184.3 159.2 184.484 159.184 184.651 159.15C184.784 159.116 184.916 159.05 185.05 158.95C185.151 158.85 185.234 158.75 185.3 158.65C185.334 158.517 185.35 158.366 185.35 158.2C185.35 158 185.334 157.833 185.3 157.7C185.234 157.566 185.133 157.45 185 157.35Z" fill="#413F59"></path> <path fill-rule="evenodd" clip-rule="evenodd" d="M45.9517 152.95C46.0513 152.85 46.1846 152.8 46.3516 152.8H48.1514C48.3184 152.8 48.4849 152.816 48.6514 152.85C48.8184 152.85 49.0181 152.884 49.2515 152.95C49.4517 152.983 49.668 153.066 49.9014 153.2C50.1348 153.3 50.335 153.45 50.5015 153.65C50.668 153.816 50.8013 154.033 50.9014 154.3C50.9683 154.533 51.0015 154.8 51.0015 155.1C51.0015 155.533 50.9346 155.917 50.8013 156.25C50.668 156.583 50.4849 156.866 50.2515 157.1C49.9849 157.3 49.668 157.467 49.3013 157.6C48.9346 157.7 48.5015 157.75 48.0015 157.75H47.3516V160.2C47.3516 160.233 47.3516 160.267 47.3516 160.3C47.3184 160.333 47.2681 160.35 47.2017 160.35C47.1348 160.384 47.0513 160.4 46.9517 160.4C46.8516 160.434 46.7349 160.45 46.6016 160.45C46.4346 160.45 46.3013 160.434 46.2017 160.4C46.1016 160.4 46.0347 160.384 46.0015 160.35C45.9346 160.35 45.8848 160.333 45.8516 160.3C45.8516 160.267 45.8516 160.233 45.8516 160.2V153.35C45.8516 153.184 45.8848 153.05 45.9517 152.95ZM49.4014 155.25C49.4014 154.983 49.3516 154.767 49.2515 154.6C49.1846 154.4 49.0684 154.267 48.9014 154.2C48.7681 154.1 48.6348 154.05 48.5015 154.05C48.335 154.017 48.168 154 48.0015 154H47.3516V156.6H48.0513C48.3184 156.6 48.5347 156.566 48.7017 156.5C48.8682 156.434 49.0015 156.333 49.1016 156.2C49.2017 156.066 49.2681 155.934 49.3013 155.8C49.3682 155.634 49.4014 155.45 49.4014 155.25ZM55.6016 152.8H59.3516C59.3848 152.8 59.418 152.816 59.4517 152.85C59.4849 152.884 59.5181 152.917 59.5513 152.95C59.5513 152.983 59.5684 153.05 59.6016 153.15C59.6016 153.217 59.6016 153.316 59.6016 153.45C59.6016 153.55 59.6016 153.634 59.6016 153.7C59.5684 153.767 59.5513 153.833 59.5513 153.9C59.5181 153.934 59.4849 153.967 59.4517 154C59.418 154.033 59.3848 154.05 59.3516 154.05H56.6514V155.9H58.9517C58.9849 155.9 59.0181 155.9 59.0513 155.9C59.085 155.934 59.1016 155.967 59.1016 156C59.1348 156.066 59.1514 156.134 59.1514 156.2C59.1846 156.267 59.2017 156.35 59.2017 156.45C59.2017 156.583 59.1846 156.684 59.1514 156.75C59.1514 156.816 59.1348 156.884 59.1016 156.95C59.1016 156.983 59.085 157.017 59.0513 157.05C59.0181 157.05 58.9849 157.05 58.9517 157.05H56.6514V159.2H59.4014C59.4346 159.2 59.4683 159.217 59.5015 159.25C59.5347 159.25 59.5513 159.283 59.5513 159.35C59.585 159.384 59.6016 159.434 59.6016 159.5C59.6016 159.6 59.6016 159.7 59.6016 159.8C59.6016 159.9 59.6016 160 59.6016 160.1C59.6016 160.167 59.585 160.217 59.5513 160.25C59.5513 160.316 59.5347 160.35 59.5015 160.35C59.4683 160.384 59.4346 160.4 59.4014 160.4H55.6016C55.4683 160.4 55.3516 160.366 55.2515 160.3C55.1846 160.2 55.1514 160.066 55.1514 159.9V153.3C55.1514 153.134 55.1846 153.017 55.2515 152.95C55.3516 152.85 55.4683 152.8 55.6016 152.8ZM67.7515 153.1L70.1016 159.85C70.1348 159.983 70.168 160.083 70.2017 160.15C70.2017 160.25 70.1846 160.316 70.1514 160.35C70.085 160.384 70.0015 160.4 69.9014 160.4C69.8013 160.434 69.6514 160.45 69.4517 160.45C69.2515 160.45 69.1016 160.45 69.0015 160.45C68.8682 160.417 68.7847 160.4 68.7515 160.4C68.6846 160.366 68.6348 160.333 68.6016 160.3C68.5684 160.267 68.5513 160.233 68.5513 160.2L68.0513 158.65H65.2017L64.7017 160.15C64.7017 160.217 64.6846 160.267 64.6514 160.3C64.6182 160.333 64.585 160.366 64.5513 160.4C64.4849 160.4 64.4014 160.4 64.3013 160.4C64.2017 160.434 64.0684 160.45 63.9014 160.45C63.7017 160.45 63.5513 160.434 63.4517 160.4C63.3516 160.4 63.2847 160.384 63.2515 160.35C63.2183 160.283 63.2017 160.217 63.2017 160.15C63.2017 160.05 63.2349 159.934 63.3013 159.8L65.6514 153.1C65.6514 153.033 65.668 152.983 65.7017 152.95C65.7349 152.884 65.7847 152.85 65.8516 152.85C65.918 152.816 66.0181 152.8 66.1514 152.8C66.2847 152.8 66.4346 152.8 66.6016 152.8C66.835 152.8 67.0347 152.8 67.2017 152.8C67.335 152.8 67.4346 152.816 67.5015 152.85C67.5684 152.85 67.6182 152.884 67.6514 152.95C67.6846 152.983 67.7183 153.033 67.7515 153.1ZM67.7017 157.5L66.6016 154.25L65.5513 157.5H67.7017ZM158.051 152.8H159.902C160.035 152.8 160.152 152.85 160.251 152.95C160.318 153.017 160.351 153.134 160.351 153.3V160.2C160.351 160.233 160.335 160.267 160.301 160.3C160.301 160.333 160.268 160.366 160.202 160.4C160.134 160.4 160.051 160.4 159.952 160.4C159.851 160.434 159.735 160.45 159.601 160.45C159.435 160.45 159.301 160.434 159.202 160.4C159.134 160.4 159.068 160.4 159.001 160.4C158.935 160.366 158.884 160.333 158.851 160.3C158.818 160.267 158.801 160.233 158.801 160.2V157.35H158.251C158.018 157.35 157.835 157.384 157.702 157.45C157.601 157.483 157.501 157.55 157.402 157.65C157.301 157.75 157.218 157.866 157.152 158C157.051 158.167 156.968 158.35 156.902 158.55L156.351 160.2C156.318 160.233 156.285 160.267 156.251 160.3C156.218 160.333 156.185 160.366 156.152 160.4C156.085 160.4 155.985 160.4 155.851 160.4C155.751 160.434 155.619 160.45 155.452 160.45C155.285 160.45 155.152 160.434 155.051 160.4C154.952 160.4 154.869 160.384 154.801 160.35C154.735 160.35 154.702 160.333 154.702 160.3C154.702 160.267 154.702 160.233 154.702 160.2C154.702 160.167 154.702 160.116 154.702 160.05C154.702 160.017 154.735 159.934 154.801 159.8L155.351 158.3C155.417 158.134 155.501 157.967 155.601 157.8C155.667 157.667 155.751 157.533 155.851 157.4C155.952 157.3 156.051 157.217 156.152 157.15C156.251 157.05 156.369 156.983 156.501 156.95C156.268 156.884 156.051 156.8 155.851 156.7C155.685 156.566 155.535 156.434 155.402 156.3C155.268 156.134 155.167 155.95 155.101 155.75C155.035 155.55 155.001 155.333 155.001 155.1C155.001 154.733 155.068 154.417 155.202 154.15C155.301 153.884 155.468 153.65 155.702 153.45C155.935 153.25 156.235 153.1 156.601 153C156.935 152.866 157.417 152.8 158.051 152.8ZM158.051 154C157.718 154 157.468 154.033 157.301 154.1C157.134 154.134 157.001 154.2 156.902 154.3C156.801 154.4 156.718 154.517 156.652 154.65C156.619 154.783 156.601 154.934 156.601 155.1C156.601 155.267 156.619 155.417 156.652 155.55C156.718 155.684 156.801 155.8 156.902 155.9C157.001 156 157.134 156.066 157.301 156.1C157.468 156.167 157.702 156.2 158.001 156.2H158.801V154H158.051ZM114.751 152.95C114.751 152.917 114.768 152.884 114.801 152.85C114.835 152.816 114.868 152.8 114.901 152.8H120.251C120.285 152.8 120.318 152.816 120.352 152.85C120.385 152.884 120.401 152.917 120.401 152.95C120.435 153.017 120.452 153.083 120.452 153.15C120.452 153.25 120.452 153.35 120.452 153.45C120.452 153.55 120.452 153.65 120.452 153.75C120.452 153.816 120.435 153.884 120.401 153.95C120.401 153.983 120.385 154.017 120.352 154.05C120.318 154.083 120.285 154.1 120.251 154.1H118.352V160.2C118.352 160.233 118.335 160.267 118.301 160.3C118.268 160.333 118.235 160.35 118.202 160.35C118.135 160.384 118.051 160.4 117.952 160.4C117.852 160.434 117.718 160.45 117.551 160.45C117.418 160.45 117.301 160.434 117.202 160.4C117.102 160.4 117.018 160.384 116.952 160.35C116.885 160.35 116.852 160.333 116.852 160.3C116.818 160.267 116.801 160.233 116.801 160.2V154.1H114.901C114.868 154.1 114.835 154.083 114.801 154.05C114.768 154.017 114.751 153.983 114.751 153.95C114.718 153.884 114.702 153.816 114.702 153.75C114.668 153.65 114.651 153.55 114.651 153.45C114.651 153.35 114.668 153.25 114.702 153.15C114.702 153.083 114.718 153.017 114.751 152.95ZM125.301 152.95C125.335 152.884 125.385 152.85 125.452 152.85C125.518 152.816 125.618 152.8 125.751 152.8C125.885 152.8 126.035 152.8 126.202 152.8C126.435 152.8 126.635 152.8 126.801 152.8C126.935 152.8 127.035 152.816 127.102 152.85C127.168 152.85 127.218 152.884 127.251 152.95C127.285 152.983 127.318 153.033 127.352 153.1L129.702 159.85C129.735 159.983 129.768 160.083 129.801 160.15C129.801 160.25 129.785 160.316 129.751 160.35C129.685 160.384 129.602 160.4 129.501 160.4C129.401 160.434 129.251 160.45 129.051 160.45C128.852 160.45 128.702 160.45 128.602 160.45C128.468 160.417 128.385 160.4 128.352 160.4C128.285 160.366 128.235 160.333 128.202 160.3C128.168 160.267 128.151 160.233 128.151 160.2L127.651 158.65H124.801L124.301 160.15C124.301 160.217 124.285 160.267 124.251 160.3C124.218 160.333 124.185 160.366 124.151 160.4C124.085 160.4 124.001 160.4 123.901 160.4C123.801 160.434 123.668 160.45 123.501 160.45C123.301 160.45 123.151 160.434 123.051 160.4C122.952 160.4 122.885 160.384 122.852 160.35C122.818 160.283 122.801 160.217 122.801 160.15C122.801 160.05 122.835 159.934 122.901 159.8L125.251 153.1C125.251 153.033 125.268 152.983 125.301 152.95ZM133.651 152.9C133.685 152.866 133.735 152.85 133.801 152.85C133.868 152.816 133.952 152.8 134.051 152.8C134.151 152.8 134.268 152.8 134.401 152.8C134.568 152.8 134.685 152.8 134.751 152.8C134.852 152.8 134.935 152.816 135.001 152.85C135.068 152.85 135.118 152.866 135.151 152.9C135.151 152.934 135.151 152.967 135.151 153V159.1H137.952V153C137.952 152.967 137.968 152.934 138.001 152.9C138.035 152.866 138.085 152.85 138.151 152.85C138.185 152.816 138.251 152.8 138.352 152.8C138.452 152.8 138.585 152.8 138.751 152.8C138.885 152.8 139.001 152.8 139.102 152.8C139.202 152.8 139.285 152.816 139.352 152.85C139.418 152.85 139.452 152.866 139.452 152.9C139.485 152.934 139.501 152.967 139.501 153V159.1H140.202C140.268 159.1 140.335 159.134 140.401 159.2C140.435 159.233 140.452 159.316 140.452 159.45V162.2C140.452 162.233 140.435 162.267 140.401 162.3C140.401 162.333 140.368 162.35 140.301 162.35C140.268 162.384 140.202 162.4 140.102 162.4C140.001 162.4 139.885 162.4 139.751 162.4C139.618 162.4 139.518 162.4 139.452 162.4C139.352 162.4 139.285 162.384 139.251 162.35C139.185 162.35 139.135 162.333 139.102 162.3C139.102 162.267 139.102 162.233 139.102 162.2V160.4H134.051C133.918 160.4 133.818 160.366 133.751 160.3C133.685 160.2 133.651 160.066 133.651 159.9V153C133.651 152.967 133.651 152.934 133.651 152.9ZM145.952 153V157.05C145.952 157.15 145.952 157.283 145.952 157.45C145.952 157.583 145.952 157.717 145.952 157.85C146.018 157.717 146.101 157.566 146.202 157.4C146.301 157.267 146.402 157.116 146.501 156.95L149.152 153C149.185 152.967 149.218 152.934 149.251 152.9C149.285 152.866 149.335 152.85 149.402 152.85C149.435 152.816 149.485 152.8 149.551 152.8C149.652 152.8 149.751 152.8 149.851 152.8C150.018 152.8 150.152 152.8 150.251 152.8C150.318 152.8 150.384 152.816 150.452 152.85C150.518 152.85 150.551 152.866 150.551 152.9C150.585 152.934 150.601 152.967 150.601 153V160.2C150.601 160.233 150.585 160.267 150.551 160.3C150.518 160.333 150.485 160.366 150.452 160.4C150.384 160.4 150.301 160.4 150.202 160.4C150.101 160.434 149.968 160.45 149.801 160.45C149.667 160.45 149.551 160.434 149.452 160.4C149.351 160.4 149.268 160.4 149.202 160.4C149.167 160.366 149.134 160.333 149.101 160.3C149.068 160.267 149.051 160.233 149.051 160.2V156.2C149.051 156.066 149.051 155.917 149.051 155.75C149.051 155.616 149.068 155.483 149.101 155.35H149.051C149.051 155.417 149.018 155.483 148.952 155.55C148.917 155.616 148.884 155.7 148.851 155.8C148.785 155.866 148.718 155.95 148.652 156.05C148.619 156.116 148.568 156.2 148.501 156.3L145.851 160.2C145.818 160.233 145.785 160.267 145.751 160.3C145.718 160.333 145.685 160.366 145.652 160.4C145.585 160.4 145.518 160.417 145.452 160.45C145.384 160.45 145.285 160.45 145.152 160.45C144.985 160.45 144.869 160.434 144.801 160.4C144.702 160.4 144.619 160.4 144.551 160.4C144.518 160.366 144.485 160.333 144.452 160.3C144.452 160.267 144.452 160.233 144.452 160.2V153C144.452 152.967 144.452 152.934 144.452 152.9C144.485 152.866 144.535 152.85 144.601 152.85C144.667 152.816 144.751 152.8 144.851 152.8C144.952 152.8 145.068 152.8 145.202 152.8C145.369 152.8 145.485 152.8 145.551 152.8C145.652 152.8 145.735 152.816 145.801 152.85C145.869 152.85 145.917 152.866 145.952 152.9C145.952 152.934 145.952 152.967 145.952 153ZM78.0513 156.05C78.3516 156.15 78.6182 156.283 78.8516 156.45C79.0513 156.65 79.2183 156.884 79.3516 157.15C79.4517 157.417 79.5015 157.717 79.5015 158.05C79.5015 158.384 79.4517 158.7 79.3516 159C79.2183 159.267 79.0347 159.517 78.8013 159.75C78.5684 159.95 78.2681 160.1 77.9014 160.2C77.5347 160.333 77.0684 160.4 76.5015 160.4H74.5015C74.3682 160.4 74.2515 160.366 74.1514 160.3C74.085 160.2 74.0513 160.066 74.0513 159.9V153.3C74.0513 153.134 74.085 153.017 74.1514 152.95C74.2515 152.85 74.3682 152.8 74.5015 152.8H78.8013C78.835 152.8 78.8682 152.816 78.9014 152.85C78.9014 152.884 78.918 152.917 78.9517 152.95C78.9849 152.983 79.0015 153.05 79.0015 153.15C79.0015 153.217 79.0015 153.316 79.0015 153.45C79.0015 153.55 79.0015 153.634 79.0015 153.7C79.0015 153.767 78.9849 153.833 78.9517 153.9C78.918 153.934 78.9014 153.967 78.9014 154C78.8682 154.033 78.835 154.05 78.8013 154.05H75.5513V155.9H76.8516C77.3184 155.9 77.7183 155.95 78.0513 156.05ZM85.1016 153V157.05C85.1016 157.15 85.1016 157.283 85.1016 157.45C85.1016 157.583 85.1016 157.717 85.1016 157.85C85.168 157.717 85.2515 157.566 85.3516 157.4C85.4517 157.267 85.5513 157.116 85.6514 156.95L88.3013 153C88.335 152.967 88.3682 152.934 88.4014 152.9C88.4346 152.866 88.4849 152.85 88.5513 152.85C88.585 152.816 88.6348 152.8 88.7017 152.8C88.8013 152.8 88.9014 152.8 89.0015 152.8C89.168 152.8 89.3013 152.8 89.4014 152.8C89.4683 152.8 89.5347 152.816 89.6016 152.85C89.668 152.85 89.7017 152.866 89.7017 152.9C89.7349 152.934 89.7515 152.967 89.7515 153V160.2C89.7515 160.233 89.7349 160.267 89.7017 160.3C89.668 160.333 89.6348 160.366 89.6016 160.4C89.5347 160.4 89.4517 160.4 89.3516 160.4C89.2515 160.434 89.1182 160.45 88.9517 160.45C88.8184 160.45 88.7017 160.434 88.6016 160.4C88.5015 160.4 88.418 160.4 88.3516 160.4C88.3184 160.366 88.2847 160.333 88.2515 160.3C88.2183 160.267 88.2017 160.233 88.2017 160.2V156.2C88.2017 156.066 88.2017 155.917 88.2017 155.75C88.2017 155.616 88.2183 155.483 88.2515 155.35H88.2017C88.2017 155.417 88.168 155.483 88.1016 155.55C88.0684 155.616 88.0347 155.7 88.0015 155.8C87.9346 155.866 87.8682 155.95 87.8013 156.05C87.7681 156.116 87.7183 156.2 87.6514 156.3L85.0015 160.2C84.9683 160.233 84.9346 160.267 84.9014 160.3C84.8682 160.333 84.835 160.366 84.8013 160.4C84.7349 160.4 84.668 160.417 84.6016 160.45C84.5347 160.45 84.4346 160.45 84.3013 160.45C84.1348 160.45 84.0181 160.434 83.9517 160.4C83.8516 160.4 83.7681 160.4 83.7017 160.4C83.668 160.366 83.6348 160.333 83.6016 160.3C83.6016 160.267 83.6016 160.233 83.6016 160.2V153C83.6016 152.967 83.6016 152.934 83.6016 152.9C83.6348 152.866 83.6846 152.85 83.7515 152.85C83.8184 152.816 83.9014 152.8 84.0015 152.8C84.1016 152.8 84.2183 152.8 84.3516 152.8C84.5181 152.8 84.6348 152.8 84.7017 152.8C84.8013 152.8 84.8848 152.816 84.9517 152.85C85.0181 152.85 85.0684 152.866 85.1016 152.9C85.1016 152.934 85.1016 152.967 85.1016 153ZM97.0015 154.1C96.9014 155 96.7847 155.783 96.6514 156.45C96.5513 157.116 96.4346 157.684 96.3013 158.15C96.168 158.616 96.0347 159 95.9014 159.3C95.7349 159.6 95.5513 159.85 95.3516 160.05C95.1514 160.217 94.9346 160.333 94.7017 160.4C94.4346 160.467 94.1514 160.5 93.8516 160.5C93.7847 160.5 93.7349 160.5 93.7017 160.5C93.6348 160.467 93.6016 160.434 93.6016 160.4C93.5684 160.366 93.5513 160.3 93.5513 160.2C93.5181 160.134 93.5015 160.033 93.5015 159.9C93.5015 159.733 93.5015 159.6 93.5015 159.5C93.5347 159.4 93.5513 159.316 93.5513 159.25C93.585 159.217 93.6182 159.184 93.6514 159.15C93.6846 159.116 93.7183 159.1 93.7515 159.1C93.8848 159.1 94.0015 159.083 94.1016 159.05C94.2017 159.017 94.3013 158.917 94.4014 158.75C94.5347 158.616 94.6348 158.417 94.7017 158.15C94.8013 157.884 94.9014 157.533 95.0015 157.1C95.1016 156.667 95.2017 156.15 95.3013 155.55C95.3682 154.95 95.4517 154.217 95.5513 153.35C95.585 153.15 95.6348 153.017 95.7017 152.95C95.7681 152.85 95.8682 152.8 96.0015 152.8H99.7515C99.8848 152.8 99.9849 152.85 100.051 152.95C100.118 153.017 100.151 153.134 100.151 153.3V160.2C100.151 160.233 100.151 160.267 100.151 160.3C100.118 160.333 100.068 160.366 100.001 160.4C99.9346 160.4 99.8516 160.4 99.7515 160.4C99.6514 160.434 99.5347 160.45 99.4014 160.45C99.2349 160.45 99.1016 160.434 99.0015 160.4C98.9346 160.4 98.8682 160.4 98.8013 160.4C98.7349 160.366 98.6846 160.333 98.6514 160.3C98.6514 160.267 98.6514 160.233 98.6514 160.2V154.1H97.0015ZM106.251 153V157.05C106.251 157.15 106.251 157.283 106.251 157.45C106.251 157.583 106.251 157.717 106.251 157.85C106.318 157.717 106.401 157.566 106.501 157.4C106.602 157.267 106.702 157.116 106.801 156.95L109.452 153C109.485 152.967 109.518 152.934 109.551 152.9C109.585 152.866 109.635 152.85 109.702 152.85C109.735 152.816 109.785 152.8 109.852 152.8C109.952 152.8 110.051 152.8 110.151 152.8C110.318 152.8 110.452 152.8 110.551 152.8C110.618 152.8 110.685 152.816 110.751 152.85C110.818 152.85 110.852 152.866 110.852 152.9C110.885 152.934 110.901 152.967 110.901 153V160.2C110.901 160.233 110.885 160.267 110.852 160.3C110.818 160.333 110.785 160.366 110.751 160.4C110.685 160.4 110.602 160.4 110.501 160.4C110.401 160.434 110.268 160.45 110.102 160.45C109.968 160.45 109.852 160.434 109.751 160.4C109.651 160.4 109.568 160.4 109.501 160.4C109.468 160.366 109.435 160.333 109.401 160.3C109.368 160.267 109.352 160.233 109.352 160.2V156.2C109.352 156.066 109.352 155.917 109.352 155.75C109.352 155.616 109.368 155.483 109.401 155.35H109.352C109.352 155.417 109.318 155.483 109.251 155.55C109.218 155.616 109.185 155.7 109.151 155.8C109.085 155.866 109.018 155.95 108.952 156.05C108.918 156.116 108.868 156.2 108.801 156.3L106.151 160.2C106.118 160.233 106.085 160.267 106.051 160.3C106.018 160.333 105.985 160.366 105.952 160.4C105.885 160.4 105.818 160.417 105.751 160.45C105.685 160.45 105.585 160.45 105.452 160.45C105.285 160.45 105.168 160.434 105.102 160.4C105.001 160.4 104.918 160.4 104.852 160.4C104.818 160.366 104.785 160.333 104.751 160.3C104.751 160.267 104.751 160.233 104.751 160.2V153C104.751 152.967 104.751 152.934 104.751 152.9C104.785 152.866 104.835 152.85 104.901 152.85C104.968 152.816 105.051 152.8 105.151 152.8C105.251 152.8 105.368 152.8 105.501 152.8C105.668 152.8 105.785 152.8 105.852 152.8C105.952 152.8 106.035 152.816 106.102 152.85C106.168 152.85 106.218 152.866 106.251 152.9C106.251 152.934 106.251 152.967 106.251 153ZM77.2515 157.15C77.085 157.083 76.8516 157.05 76.5513 157.05H75.5513V159.25H76.6016C76.835 159.25 77.0347 159.217 77.2017 159.15C77.3682 159.116 77.5015 159.05 77.6016 158.95C77.7017 158.85 77.7847 158.733 77.8516 158.6C77.918 158.467 77.9517 158.316 77.9517 158.15C77.9517 157.983 77.9346 157.833 77.9014 157.7C77.835 157.566 77.7515 157.45 77.6514 157.35C77.5513 157.25 77.418 157.184 77.2515 157.15ZM127.301 157.5L126.202 154.25L125.151 157.5H127.301Z" fill="#413F59"></path> </svg> 