<?xml version="1.0" encoding="UTF-8"?> <!-- Generator: Adobe Illustrator 26.0.1, SVG Export Plug-In . SVG Version: 6.00 Build 0) --> <svg xmlns="http://www.w3.org/2000/svg" xmlns:xlink="http://www.w3.org/1999/xlink" id="Layer_1" x="0px" y="0px" viewBox="0 0 727 166.1" style="enable-background:new 0 0 727 166.1;" xml:space="preserve"> <style type="text/css"> .st0{fill:#000000;} </style> <g> <g> <path class="st0" d="M283.3,114.8c0,8.7-5.8,12.2-12.8,12.2c-5.3,0-10.1-1.2-13.9-7.2l-36.2-57.2c-1.4-1.8-1.6-2.1-2-2.1 c-0.6,0-1.7,0.6-1.7,2.5V126H201V50.8c0-7.4,4.9-11.7,13.1-11.7c7.7,0,11.3,2.9,13.6,6.8l36.5,57.6c0.6,0.9,0.9,2.1,2,2.1 c1.4,0,1.4-1.5,1.4-2.1V40.1h15.7V114.8z"></path> <path class="st0" d="M318.9,126c-20.9,0-24.6-11.8-24.6-32.7c0-25.8,9.3-33.1,31.4-33.1c18.4,0,31.3,4.9,31.3,25.8 c0,7.4-2.7,12.3-10.1,12.3h-37.8c0,9.8,1.7,16.7,14,16.7H355v11H318.9z M339,87.2c2.8,0,3.2-2,3.2-3.8c0-8.6-7.9-12.2-16.5-12.2 c-12.3,0-16.6,4.9-16.6,16H339z"></path> <path class="st0" d="M426.6,115c0,7.4-3.7,11-11,11h-23.8c-14.7,0-25.3-5-25.3-22.2V60.9h14.4v39c0,9.8,3.8,15,13.6,15h14.1 c2.5,0,3.7-1.2,3.7-3.7V60.9h14.4V115z"></path> <path class="st0" d="M437.9,85.5c0-17.4,8.8-24.6,26.3-24.6h9.7v11h-6c-11.5,0-15.6,5.8-15.6,17.3V126h-14.4V85.5z"></path> <path class="st0" d="M544.3,93.4c0,26-11.3,33.4-34.6,33.4c-23.3,0-34.6-7.4-34.6-33.4c0-25.8,11.3-33.1,34.6-33.1 C533,60.2,544.3,67.6,544.3,93.4z M509.7,115.7c14.7,0,19.8-6.4,19.8-22.3c0-16-5-22.1-19.8-22.1s-19.8,6.1-19.8,22.1 C489.9,109.3,494.9,115.7,509.7,115.7z"></path> <path class="st0" d="M583.1,72c-15.1,0-16.6,9.1-16.6,21.4c0,12.3,1.5,21.6,16.6,21.6h25.2v11h-28.7c-22.1,0-27.9-13-27.9-32.7 c0-19.6,5.8-32.4,27.9-32.4h27.3v11H583.1z"></path> <path class="st0" d="M681.7,93.4c0,26-11.3,33.4-34.6,33.4c-23.3,0-34.6-7.4-34.6-33.4c0-25.8,11.3-33.1,34.6-33.1 C670.4,60.2,681.7,67.6,681.7,93.4z M647.1,115.7c14.7,0,19.8-6.4,19.8-22.3c0-16-5-22.1-19.8-22.1c-14.7,0-19.8,6.1-19.8,22.1 C627.3,109.3,632.3,115.7,647.1,115.7z"></path> <path class="st0" d="M691,85.5c0-17.4,8.8-24.6,26.3-24.6h9.7v11h-6c-11.5,0-15.6,5.8-15.6,17.3V126H691V85.5z"></path> </g> <g> <path class="st0" d="M152.7,46.4c-5.6,6-23.1,23.4-36.3,20.3c-13.9-3.3-25.3-33.5-28.5-52.3c1.6-1.5,2.6-3.6,2.6-5.9 c0-4.4-3.6-8-8-8c-4.4,0-8,3.6-8,8c0,3.3,2,6.1,4.8,7.3c31.3,117.8-26.7,44.3-52.3,7.1c2.1-2.4,3.3-5.6,3.3-9 C30.5,6.2,24.2,0,16.5,0C8.9,0,2.6,6.2,2.6,13.9c0,7.7,6.2,13.9,13.9,13.9c1.5,0,3-0.2,4.3-0.7c0.5,0.7,1,1.4,1.5,2.1 C30.8,41.4,46,67.1,46.5,93.6c0.5,30.2-17,40.6-23.1,43.4c-2.3-1.3-5-2.1-7.8-2.1c-8.6,0-15.6,7-15.6,15.6c0,8.6,7,15.6,15.6,15.6 c8.6,0,15.6-7,15.6-15.6c0-0.4,0-0.9-0.1-1.3c8.4-5.9,25.7-15.4,49.6-16.1c24-0.7,34,10.7,37.9,17.7c-1.2,1.5-1.9,3.4-1.9,5.5 c0,4.9,4,8.9,8.9,8.9c4.9,0,8.9-4,8.9-8.9c0-4.5-3.4-8.3-7.8-8.9c-14.1-30,4-37.5,38.4-36.1c0.9,1.9,2.8,3.2,5.1,3.2 c3.1,0,5.6-2.5,5.6-5.6c0-3.1-2.5-5.6-5.6-5.6c-2.3,0-4.3,1.4-5.2,3.4c-9.1-0.5-28.8-3-28.8-15.7c0-12.8,16.3-29.6,23.8-36.7 c1.3,0.5,2.7,0.7,4.1,0.7c6.6,0,12-5.4,12-12c0-6.6-5.4-12-12-12c-6.6,0-12,5.4-12,12C152.2,44.2,152.4,45.4,152.7,46.4 L152.7,46.4z M97.4,90.4c3.6,0,6.8,1,9.1,2.6c2.5,1.7,4,4.1,4,6.8c0,2.7-1.5,5.1-4,6.8c-2.4,1.6-5.6,2.6-9.1,2.6 c-3.6,0-6.8-1-9.1-2.6c-2.5-1.7-4-4.1-4-6.8c0-2.7,1.5-5.1,4-6.8C90.6,91.4,93.8,90.4,97.4,90.4L97.4,90.4z M105.2,94.9 c1.9,1.3,3,3,3,4.9c0,1.9-1.2,3.6-3,4.9c-2,1.4-4.8,2.2-7.8,2.2c-3.1,0-5.8-0.8-7.8-2.2c-1.9-1.3-3-3-3-4.9c0-1.9,1.2-3.6,3-4.9 c2-1.4,4.8-2.2,7.8-2.2C100.5,92.7,103.2,93.5,105.2,94.9L105.2,94.9z M46.7,57c0,0,11.8,16.2,23.5,22.7 c11.7,6.5,17.2,5.1,20.7-3.6c3.5-8.7,1.2-27.1,1.2-27.1s6.9,12.5,18.3,19.8c11.4,7.3,33.5-7.1,33.5-7.1s-16.4,26.5-11.2,36.7 c5.2,10.1,14.5,8.9,14.5,8.9s-20.1,2.1-26.1,10.6c-5.9,8.6-0.6,23.4-0.6,23.4s-10.1-12.4-41.4-11.8c-31.3,0.6-41.3,9.7-41.3,9.7 S62.6,115.2,46.7,57L46.7,57z M82.7,2.5c3.3,0,6,2.7,6,6c0,3.3-2.7,6-6,6c-3.3,0-6-2.7-6-6C76.7,5.2,79.4,2.5,82.7,2.5L82.7,2.5z M164.2,33.5c5.2,0,9.4,4.2,9.4,9.4c0,5.2-4.2,9.4-9.4,9.4c-5.2,0-9.4-4.2-9.4-9.4C154.7,37.7,159,33.5,164.2,33.5L164.2,33.5z M170.5,104.9c2.3,0,4.1,1.8,4.1,4.1c0,2.3-1.8,4.1-4.1,4.1c-2.3,0-4.1-1.8-4.1-4.1C166.4,106.7,168.3,104.9,170.5,104.9 L170.5,104.9z M125.8,150.3c3.5,0,6.3,2.8,6.3,6.3c0,3.5-2.8,6.3-6.3,6.3c-3.5,0-6.3-2.8-6.3-6.3 C119.5,153.1,122.3,150.3,125.8,150.3L125.8,150.3z M15.4,138.8c6.5,0,11.9,5.3,11.9,11.9c0,6.5-5.3,11.9-11.9,11.9 s-11.9-5.3-11.9-11.9C3.6,144.1,8.9,138.8,15.4,138.8L15.4,138.8z M16.6,3.4c5.9,0,10.7,4.8,10.7,10.7c0,5.9-4.8,10.7-10.7,10.7 c-5.9,0-10.7-4.8-10.7-10.7C5.9,8.2,10.7,3.4,16.6,3.4z"></path> </g> </g> </svg> 