<svg class="logo" width="190" height="41" viewBox="0 0 190 41" fill="none" xmlns="http://www.w3.org/2000/svg">
<path fill-rule="evenodd" clip-rule="evenodd" d="M20.1311 0C24.1126 0 28.0048 1.18067 31.3153 3.3927C34.6258 5.60473 37.2061 8.74877 38.7298 12.4272C40.2534 16.1057 40.6521 20.1534 39.8753 24.0585C39.0986 27.9635 37.1813 31.5505 34.3659 34.3659C31.5505 37.1813 27.9635 39.0986 24.0585 39.8753C20.1534 40.6521 16.1057 40.2534 12.4272 38.7298C8.74877 37.2061 5.60473 34.6258 3.3927 31.3153C1.18067 28.0048 0 24.1126 0 20.1311C0 14.792 2.12095 9.67157 5.89626 5.89626C9.67157 2.12095 14.792 0 20.1311 0Z" fill="#398DC1"></path>
<path fill-rule="evenodd" clip-rule="evenodd" d="M19.5574 2.35964C23.0687 2.25423 26.5326 3.19168 29.5112 5.05356C32.4899 6.91543 34.8499 9.61821 36.293 12.8204C37.7361 16.0227 38.1975 19.5807 37.619 23.045C37.0406 26.5093 35.4482 29.7245 33.0429 32.2844C30.6377 34.8442 27.5276 36.634 24.1055 37.4275C20.6834 38.2209 17.1029 37.9826 13.8162 36.7425C10.5296 35.5024 7.68428 33.3162 5.63974 30.4601C3.59521 27.604 2.44319 24.2061 2.32923 20.6957C2.2534 18.36 2.63916 16.0323 3.46442 13.8459C4.28969 11.6595 5.53824 9.65734 7.13857 7.9541C8.73891 6.25086 10.6596 4.87999 12.7906 3.92C14.9216 2.96002 17.2211 2.42977 19.5574 2.35964ZM26.1041 12.3674H22.6068C21.2283 12.4188 19.8479 12.3526 18.4807 12.1693C16.7578 11.8248 15.9998 11.1616 13.2002 11.0324C12.8001 11.0697 12.3975 10.9951 12.0373 10.8171C11.1031 10.2788 10.2105 9.67135 9.36694 8.99988C9.18157 8.88655 9.01334 8.74735 8.86733 8.58648C8.79003 8.47242 8.75543 8.33476 8.76961 8.19772C8.78379 8.06068 8.84584 7.93302 8.94485 7.83719L9.2808 7.53575C11.0819 5.97565 13.1979 4.82177 15.485 4.15263C17.7721 3.48349 20.1765 3.3148 22.5346 3.65803C24.8927 4.00127 27.1492 4.84837 29.1506 6.1417C31.1519 7.43503 32.8511 9.14424 34.1325 11.153C34.3306 11.4544 34.5029 11.6611 34.4512 11.954C34.4287 12.0832 34.3608 12.2002 34.2597 12.2838C34.1587 12.3675 34.0311 12.4124 33.8999 12.4104L26.1041 12.3674ZM27.9562 17.5349C28.2285 17.5647 28.4797 17.6957 28.6601 17.9018C28.8405 18.1079 28.9371 18.3742 28.9306 18.6481C28.9241 18.9219 28.815 19.1833 28.625 19.3807C28.4351 19.578 28.1779 19.6969 27.9045 19.7138C27.6151 19.7048 27.3408 19.5823 27.1409 19.3729C26.9411 19.1634 26.8317 18.8837 26.8363 18.5942C26.8397 18.4509 26.8714 18.3098 26.9296 18.1788C26.9878 18.0478 27.0713 17.9297 27.1755 17.8312C27.2796 17.7327 27.4022 17.6558 27.5362 17.605C27.6702 17.5541 27.8129 17.5303 27.9562 17.5349ZM24.1229 26.1474C24.6793 26.4413 25.2549 26.6974 25.8457 26.9139C26.5872 27.2993 27.4286 27.4495 28.2577 27.3445C29.6273 26.8278 30.1441 26.7416 29.6704 25.9837C29.3603 25.4842 28.249 25.6823 27.4652 25.9148C26.7793 26.2311 26.0024 26.2892 25.2772 26.0785C24.8723 25.9751 24.5191 25.9148 24.1143 25.8201C23.7094 25.7254 23.7956 25.8804 24.1229 26.0957V26.1474ZM20.8754 23.3397C21.9728 23.6899 23.1104 23.8983 24.2607 23.9598C24.7881 23.8585 25.2929 23.663 25.751 23.3828C26.1817 23.1588 25.8285 22.7282 25.5098 22.5904C24.6484 22.2115 23.6405 23.288 22.7533 23.0469C21.866 22.8057 21.1166 22.9263 20.6514 22.7282C20.3845 22.6183 20.1303 22.4797 19.8934 22.3148C19.5402 22.0823 19.6177 22.3148 19.7642 22.5129C20.059 22.8655 20.4426 23.1331 20.8754 23.288V23.3397ZM7.51491 9.33577C6.10349 10.9811 5.03196 12.8896 4.36215 14.9511C4.32384 15.0827 4.33512 15.2237 4.39386 15.3475C4.4526 15.4714 4.55472 15.5693 4.68087 15.6229C5.29248 15.8985 6.1625 16.355 6.86024 16.665C9.50477 17.9741 10.1681 18.9215 11.8995 21.376C12.3905 22.0909 12.7609 22.5646 13.2261 23.2794C13.3811 23.6497 15.0178 24.4765 15.8103 24.7521C16.353 24.9416 15.0436 24.1407 14.8369 23.8478C14.4579 23.288 14.4579 23.133 14.9316 23.6239C15.4054 24.1148 18.0155 25.9062 18.6702 26.3368C19.5833 26.9311 22.0297 27.7579 23.0375 28.378C23.8018 28.7447 24.6013 29.0333 25.4236 29.2393C27.0172 29.8077 27.6374 29.9196 27.7753 29.4632C27.8434 29.1782 27.8133 28.8785 27.6898 28.6128C27.5663 28.347 27.3566 28.1308 27.0948 27.9991C26.3186 27.6143 25.5221 27.2721 24.7087 26.9742C24.2857 26.7869 23.8866 26.5498 23.5199 26.2679C22.357 25.4067 21.2113 24.7694 20.2121 24.1579C19.2819 23.2191 18.4953 22.1482 17.8777 20.9799C17.6283 20.3475 17.452 19.6886 17.3522 19.0162C17.111 17.8966 17.1024 16.553 18.5496 16.355C18.9803 16.2947 20.0657 16.1483 20.505 16.0277C21.4697 15.7607 23.5199 15.976 24.5364 15.5884C25.2686 15.3128 26.0524 14.5894 26.0697 13.9262C26.0697 12.9272 25.3633 13.1597 23.5802 13.2286C21.6507 13.3114 19.7183 13.1581 17.826 12.7722C16.5487 12.2541 15.1961 11.9458 13.8204 11.8592C13.1554 11.873 12.4932 11.768 11.865 11.5492C10.6286 10.8594 9.45034 10.0701 8.34187 9.18935C8.27876 9.14243 8.20673 9.10889 8.13019 9.0908C8.05366 9.07272 7.97423 9.07046 7.89679 9.08417C7.81935 9.09788 7.74553 9.12727 7.67986 9.17054C7.61419 9.2138 7.55806 9.27003 7.51491 9.33577ZM22.8308 24.2612L24.4244 24.4938C25.5098 24.666 27.3876 23.1502 28.1284 24.1751C28.4558 24.6057 28.0681 24.8986 27.8183 24.9675C27.4221 25.0794 27.0431 25.2689 26.8449 25.3206C26.264 25.5632 25.6194 25.6086 25.0101 25.4498C23.7793 25.3279 22.5967 24.9082 21.5645 24.2268C21.151 23.9856 21.3319 23.9167 21.6248 23.977C22.1503 24.0718 22.4518 24.2096 22.8308 24.2612ZM26.9052 13.6851C26.7797 14.572 26.328 15.3803 25.6382 15.9521C24.9485 16.5238 24.0704 16.818 23.1753 16.777C23.0547 16.777 22.9169 16.777 22.9083 16.777C22.8997 16.777 23.0031 16.8889 23.0892 16.9578C23.8274 17.5246 24.322 18.3511 24.4724 19.2694C24.6228 20.1877 24.4177 21.1289 23.8989 21.9014C23.8472 21.9703 23.8128 22.0048 23.8386 22.0392C23.8645 22.0737 23.9334 22.0392 24.0109 22.0392C24.8506 21.6432 25.8123 21.5928 26.6888 21.8988C27.5653 22.2049 28.2865 22.843 28.697 23.6756C28.7573 23.7962 28.7917 23.9167 28.852 23.9081C28.9123 23.8995 28.9037 23.7617 28.9209 23.6325C29.0336 22.71 29.4995 21.8671 30.2207 21.2809C30.942 20.6947 31.8625 20.4108 32.7887 20.489C32.8748 20.489 32.9265 20.489 32.9437 20.489C32.961 20.489 32.9437 20.4114 32.8317 20.3512C30.7557 18.5081 31.531 16.2688 33.4175 14.3224C33.5467 14.1846 34.1755 13.5903 34.1152 13.5214C34.0549 13.4525 33.3744 14.0037 33.2538 14.1157C31.0314 15.5971 28.5419 15.7865 27.224 13.6679C27.1464 13.5387 27.0948 13.4353 27.0431 13.4439C26.9914 13.4525 26.9311 13.487 26.9052 13.6851ZM19.5316 1.62758C23.1936 1.50839 26.8088 2.47791 29.9196 4.41348C33.0304 6.34904 35.4971 9.16366 37.0075 12.5012C38.518 15.8388 39.0043 19.5493 38.405 23.1633C37.8058 26.7773 36.1478 30.1323 33.6408 32.804C31.1339 35.4756 27.8907 37.3437 24.3216 38.172C20.7525 39.0003 17.0178 38.7515 13.5902 37.4571C10.1625 36.1627 7.19589 33.8809 5.06565 30.9003C2.93541 27.9198 1.73729 24.3744 1.62287 20.7129C1.46496 15.8056 3.26285 11.0364 6.62121 7.45421C9.97956 3.87198 14.6234 1.76995 19.5316 1.61035V1.62758Z" fill="white"></path>
<path fill-rule="evenodd" clip-rule="evenodd" d="M11.3471 34.5191C9.08563 33.1005 7.18844 31.169 5.80855 28.8803V28.8194C5.75536 28.7309 5.72703 28.6296 5.72657 28.5262C5.72611 28.4228 5.75353 28.3213 5.80592 28.2322C5.85832 28.1432 5.93375 28.07 6.02423 28.0205C6.11472 27.9709 6.21689 27.9467 6.31993 27.9506H18.9485C19.3222 27.949 19.6947 27.9927 20.0579 28.0809C20.3704 28.1657 20.6773 28.2702 20.9767 28.3937C22.3264 29.1361 23.7574 29.7192 25.2411 30.1314C25.7611 30.2704 27.3386 30.8439 27.798 30.6701C27.9713 30.5907 28.1271 30.4775 28.2564 30.3372C28.3857 30.1969 28.486 30.0323 28.5513 29.8528C28.6166 29.6734 28.6457 29.4827 28.6369 29.2919C28.6281 29.1011 28.5816 28.9139 28.5001 28.7413C28.4514 28.6567 28.4257 28.5608 28.4257 28.4632C28.4257 28.3656 28.4514 28.2697 28.5001 28.1852C28.5533 28.1144 28.623 28.0576 28.703 28.0198C28.783 27.9819 28.871 27.9642 28.9594 27.968H33.9606C34.0622 27.9673 34.1621 27.9938 34.2501 28.0446C34.3381 28.0955 34.411 28.169 34.4613 28.2574C34.5116 28.3459 34.5375 28.4462 34.5363 28.548C34.5352 28.6499 34.507 28.7495 34.4546 28.8368L34.4026 28.9324C34.4026 29.0019 34.2293 29.2191 34.1686 29.306C32.0856 32.5474 28.9555 34.9736 25.3017 36.1787C23.7897 36.6665 22.2174 36.9414 20.63 36.9954C17.3441 37.1059 14.1 36.2317 11.3124 34.4844" fill="#E8454A"></path>
<path d="M188.99 15.9131C189.005 16.1974 189.005 16.4823 188.99 16.7666C188.973 16.9502 188.933 17.1308 188.871 17.3044C188.836 17.4162 188.768 17.5145 188.675 17.586C188.6 17.6369 188.511 17.6636 188.42 17.6629H184.922V28.6311C184.922 28.73 184.889 28.8262 184.828 28.9042C184.745 28.9953 184.639 29.063 184.522 29.1005C184.329 29.1627 184.129 29.2028 183.926 29.22C183.671 29.22 183.348 29.22 182.973 29.22C182.599 29.22 182.284 29.22 182.037 29.22C181.834 29.2028 181.635 29.1627 181.441 29.1005C181.319 29.0673 181.21 28.9991 181.126 28.9042C181.072 28.8236 181.042 28.7285 181.041 28.6311V17.6799H177.56C177.465 17.6847 177.371 17.6544 177.296 17.5946C177.205 17.5219 177.137 17.424 177.101 17.3129C177.038 17.1307 176.998 16.9415 176.981 16.7496C176.952 16.466 176.938 16.1811 176.939 15.896C176.94 15.6363 176.957 15.3768 176.99 15.1193C177.012 14.9421 177.052 14.7677 177.109 14.5986C177.151 14.4901 177.215 14.3913 177.296 14.3084C177.372 14.2512 177.465 14.2211 177.56 14.223H188.42C188.512 14.221 188.603 14.2512 188.675 14.3084C188.766 14.385 188.834 14.4855 188.871 14.5986C188.929 14.7703 188.969 14.9477 188.99 15.1278C189.006 15.4121 189.006 15.6971 188.99 15.9814V15.9131ZM164.309 17.0483C163.78 17.059 163.258 17.1781 162.777 17.3982C162.295 17.6184 161.864 17.935 161.509 18.3286C160.778 19.3092 160.427 20.5224 160.521 21.7429C160.514 22.3668 160.585 22.9892 160.734 23.5951C160.852 24.1122 161.078 24.5981 161.398 25.0205C161.703 25.4346 162.103 25.7685 162.564 25.9936C163.11 26.2643 163.702 26.4294 164.309 26.4801V17.0483ZM171.968 21.7855C172.046 20.6187 171.747 19.4579 171.117 18.4737C170.765 18.0383 170.324 17.684 169.823 17.4351C169.322 17.1862 168.774 17.0484 168.215 17.0312V26.4204C168.746 26.4075 169.268 26.2858 169.749 26.0626C170.231 25.8395 170.662 25.5197 171.015 25.123C171.727 24.1442 172.065 22.9419 171.968 21.7343V21.7855ZM175.943 21.6234C175.958 22.6875 175.782 23.7456 175.424 24.7474C175.1 25.659 174.586 26.4911 173.917 27.1886C173.232 27.9046 172.402 28.4662 171.483 28.8359C170.431 29.2629 169.315 29.5082 168.181 29.5615V34.1877C168.184 34.2897 168.151 34.3894 168.088 34.4694C168.007 34.5653 167.9 34.6363 167.781 34.6743C167.586 34.7431 167.383 34.789 167.177 34.8108C166.922 34.8108 166.607 34.8535 166.241 34.8535C165.922 34.8553 165.604 34.8411 165.287 34.8108C165.081 34.789 164.879 34.7431 164.683 34.6743C164.561 34.6382 164.451 34.567 164.368 34.4694C164.305 34.3894 164.272 34.2897 164.275 34.1877V29.5102C163.133 29.4846 162.003 29.2712 160.93 28.8786C160.022 28.5495 159.194 28.0284 158.504 27.3507C157.839 26.678 157.333 25.8642 157.023 24.9693C156.337 22.929 156.337 20.7189 157.023 18.6786C157.356 17.7669 157.872 16.9332 158.538 16.2289C159.229 15.5194 160.058 14.9588 160.972 14.5815C162.022 14.1546 163.135 13.9093 164.266 13.856V8.84561C164.263 8.74362 164.297 8.64393 164.36 8.56394C164.443 8.46632 164.552 8.39512 164.675 8.35908C164.87 8.29022 165.073 8.24439 165.279 8.22251C165.596 8.1923 165.914 8.17805 166.232 8.17984C166.598 8.17984 166.913 8.17984 167.168 8.22251C167.374 8.24439 167.577 8.29022 167.773 8.35908C167.892 8.39703 167.998 8.46804 168.079 8.56394C168.142 8.64393 168.175 8.74362 168.173 8.84561V13.856C169.321 13.8827 170.457 14.099 171.534 14.4962C172.443 14.8297 173.269 15.3535 173.96 16.0326C174.627 16.7021 175.131 17.5171 175.432 18.414C175.794 19.4271 175.976 20.4961 175.969 21.5722L175.943 21.6234ZM150.938 21.7941C150.941 21.1585 150.884 20.524 150.768 19.8992C150.677 19.3685 150.49 18.8591 150.215 18.3969C149.962 17.9783 149.604 17.6338 149.176 17.3983C148.674 17.1426 148.114 17.0192 147.551 17.0398C147.022 17.0295 146.498 17.1404 146.019 17.3641C145.582 17.5715 145.209 17.8929 144.938 18.2945C144.643 18.7455 144.429 19.2455 144.308 19.7711C144.162 20.418 144.09 21.0796 144.095 21.7429C144.092 22.3785 144.149 23.013 144.266 23.6378C144.366 24.1669 144.556 24.6749 144.827 25.14C145.072 25.5627 145.432 25.9063 145.866 26.1302C146.368 26.3784 146.923 26.4986 147.483 26.4801C148.016 26.4938 148.546 26.3859 149.032 26.1643C149.464 25.9536 149.834 25.6328 150.104 25.2339C150.404 24.7887 150.618 24.2906 150.734 23.7658C150.89 23.103 150.967 22.4239 150.964 21.7429L150.938 21.7941ZM154.938 21.6404C154.951 22.7367 154.793 23.8282 154.47 24.8754C154.184 25.8062 153.702 26.6648 153.057 27.3934C152.401 28.0984 151.591 28.6418 150.691 28.981C149.626 29.3841 148.493 29.5782 147.355 29.5529C146.261 29.5758 145.171 29.4024 144.138 29.0408C143.276 28.7299 142.5 28.2179 141.874 27.5471C141.251 26.8547 140.794 26.0284 140.538 25.1315C140.233 24.0693 140.087 22.9676 140.104 21.8624C140.09 20.7633 140.248 19.669 140.572 18.6188C140.854 17.67 141.343 16.7956 142.002 16.0582C142.654 15.3389 143.464 14.7809 144.368 14.4279C145.43 14.0241 146.56 13.8299 147.695 13.856C148.794 13.834 149.889 14.0045 150.93 14.3596C151.817 14.6788 152.612 15.2124 153.245 15.9131C153.862 16.6082 154.316 17.4338 154.572 18.3286C154.854 19.3915 154.981 20.4899 154.947 21.5892L154.938 21.6404ZM138.589 26.446C138.589 26.7106 138.589 26.941 138.589 27.1203C138.577 27.2777 138.557 27.4344 138.529 27.5897C138.51 27.6937 138.475 27.7943 138.427 27.8885C138.367 28.0022 138.286 28.1035 138.189 28.1872C137.994 28.3567 137.779 28.5028 137.55 28.6225C137.224 28.8061 136.882 28.9603 136.529 29.0835C136.124 29.2228 135.708 29.3312 135.287 29.4078C134.826 29.4939 134.359 29.5368 133.891 29.5358C132.924 29.5502 131.962 29.3823 131.057 29.0408C130.256 28.7232 129.544 28.2167 128.98 27.5641C128.389 26.8533 127.957 26.0238 127.712 25.1315C127.415 24.0881 127.272 23.007 127.286 21.9221C127.26 20.6981 127.435 19.4781 127.806 18.3116C128.108 17.3804 128.601 16.5227 129.252 15.7936C129.864 15.136 130.618 14.6279 131.457 14.3084C132.354 13.9834 133.302 13.8215 134.257 13.8304C134.665 13.8284 135.073 13.8656 135.474 13.9414C135.854 14.0026 136.227 14.0997 136.589 14.2316C136.909 14.3442 137.22 14.4841 137.516 14.6498C137.728 14.7624 137.925 14.8999 138.104 15.0595C138.195 15.1483 138.277 15.2455 138.351 15.3497C138.399 15.4439 138.433 15.5445 138.453 15.6485C138.453 15.7765 138.495 15.9301 138.521 16.1179C138.546 16.3057 138.521 16.5191 138.521 16.7752C138.545 17.2076 138.493 17.6409 138.368 18.0555C138.257 18.2945 138.129 18.4225 137.968 18.4225C137.759 18.411 137.559 18.3333 137.397 18.2006C137.202 18.0555 136.972 17.8933 136.699 17.7226C136.4 17.5265 136.08 17.3634 135.746 17.2361C135.318 17.0801 134.865 17.0049 134.41 17.0142C133.953 16.9916 133.498 17.0882 133.089 17.2947C132.68 17.5011 132.332 17.8103 132.078 18.1921C131.481 19.2262 131.2 20.4134 131.269 21.6063C131.261 22.2721 131.33 22.9366 131.474 23.5866C131.584 24.0941 131.786 24.5772 132.069 25.012C132.324 25.3762 132.667 25.6698 133.065 25.8656C133.504 26.062 133.981 26.1582 134.461 26.1472C134.935 26.1588 135.406 26.0776 135.848 25.9082C136.202 25.762 136.542 25.582 136.861 25.3705C137.15 25.1742 137.397 24.9949 137.593 24.8327C137.726 24.6975 137.899 24.6104 138.087 24.5852C138.17 24.5817 138.252 24.609 138.316 24.662C138.39 24.7452 138.442 24.8447 138.47 24.9522C138.508 25.1326 138.537 25.315 138.555 25.4985C138.597 25.7631 138.614 26.0448 138.614 26.3948L138.589 26.446ZM121.754 21.6746C121.761 21.0392 121.706 20.4047 121.593 19.7797C121.499 19.2485 121.309 18.7391 121.031 18.2774C120.782 17.8591 120.426 17.5145 120.001 17.2788C119.495 17.0248 118.933 16.9016 118.367 16.9203C117.838 16.9109 117.315 17.0218 116.835 17.2446C116.401 17.4526 116.03 17.774 115.763 18.175C115.464 18.6242 115.25 19.1248 115.133 19.6517C114.982 20.2978 114.911 20.9599 114.92 21.6234C114.913 22.2592 114.97 22.894 115.09 23.5183C115.184 24.0479 115.372 24.5566 115.643 25.0205C115.885 25.4342 116.231 25.7759 116.648 26.0107C117.147 26.2302 117.686 26.3436 118.231 26.3436C118.776 26.3436 119.315 26.2302 119.814 26.0107C120.248 25.8112 120.623 25.5025 120.903 25.1144C121.202 24.6696 121.413 24.1712 121.524 23.6463C121.676 23.0001 121.753 22.3385 121.754 21.6746ZM125.763 21.5209C125.776 22.6172 125.618 23.7087 125.295 24.7559C125.01 25.7004 124.529 26.5733 123.882 27.3166C123.229 28.0413 122.416 28.6025 121.507 28.9554C120.439 29.3585 119.304 29.5527 118.163 29.5273C117.071 29.5503 115.985 29.3769 114.954 29.0152C114.09 28.7043 113.311 28.1924 112.682 27.5215C112.061 26.8268 111.605 26.0013 111.345 25.1059C111.041 24.0437 110.894 22.942 110.911 21.8368C110.901 20.7373 111.062 19.6429 111.388 18.5932C111.673 17.6601 112.158 16.8007 112.809 16.0752C113.464 15.3578 114.273 14.8001 115.175 14.445C116.238 14.0417 117.368 13.8476 118.503 13.8731C119.602 13.8463 120.698 14.0168 121.737 14.3767C122.597 14.6828 123.371 15.1922 123.993 15.8619C124.613 16.5565 125.07 17.382 125.329 18.2774C125.616 19.3338 125.748 20.4264 125.72 21.5209H125.763ZM105.337 21.7429C105.335 21.1708 105.287 20.5999 105.192 20.0358C105.111 19.5347 104.956 19.0486 104.733 18.5932C104.511 18.1792 104.2 17.8204 103.822 17.5434C103.373 17.2453 102.853 17.0743 102.315 17.0483C100.92 17.0483 100.086 17.2532 99.3111 18.2945V25.2766C100.077 26.4033 101.243 26.5399 102.426 26.446C102.952 26.3781 103.454 26.185 103.89 25.8826C104.246 25.6057 104.537 25.253 104.741 24.8498C104.973 24.3785 105.134 23.875 105.218 23.3561C105.304 22.823 105.332 22.2821 105.303 21.7429H105.337ZM93.0045 28.7164C93.0088 28.8094 92.9785 28.9007 92.9194 28.9725C92.8388 29.0608 92.7359 29.1257 92.6215 29.1603C92.4266 29.2114 92.227 29.2429 92.0258 29.2542C91.7196 29.2697 91.4128 29.2697 91.1066 29.2542C90.7321 29.2542 90.4172 29.2542 90.1619 29.2542C89.9522 29.2433 89.7442 29.2118 89.5406 29.1603C89.4112 29.1261 89.2916 29.0617 89.1917 28.9725C89.1296 28.9019 89.0962 28.8105 89.098 28.7164V20.1809L87.5576 22.2721L82.8851 28.6481C82.8034 28.7504 82.7153 28.8474 82.6213 28.9384C82.5279 29.0211 82.4174 29.0823 82.2979 29.1176C82.142 29.1753 81.9786 29.2098 81.8127 29.22H81.0468C80.7462 29.2356 80.4451 29.2356 80.1446 29.22C79.9573 29.2092 79.7718 29.1777 79.5914 29.1261C79.4761 29.0936 79.3727 29.0284 79.2935 28.9384C79.2353 28.8595 79.2053 28.7633 79.2084 28.6652V14.7181C79.2064 14.6254 79.2365 14.535 79.2935 14.462C79.3751 14.3689 79.4814 14.3008 79.5999 14.2657C79.7936 14.2044 79.9934 14.1643 80.1957 14.1462C80.5019 14.1307 80.8086 14.1307 81.1148 14.1462C81.6359 14.1221 82.1576 14.1738 82.6638 14.2998C82.9702 14.4023 83.1149 14.5559 83.1149 14.7522V23.0573L84.5362 21.1454L89.2512 14.7522C89.3257 14.6439 89.4144 14.5463 89.5151 14.462C89.6206 14.381 89.7384 14.3176 89.864 14.2742C90.0307 14.226 90.2018 14.1946 90.3747 14.1803C90.6383 14.1648 90.9026 14.1648 91.1662 14.1803C91.5322 14.1803 91.83 14.1803 92.0769 14.1803C92.2681 14.1924 92.457 14.2297 92.6386 14.2913C92.7466 14.3137 92.843 14.3743 92.9102 14.462C92.9774 14.5498 93.0109 14.6588 93.0045 14.7693V28.7164ZM73.1146 20.1809C73.1831 19.277 72.9495 18.3761 72.4508 17.6202C72.1905 17.2958 71.8552 17.04 71.4741 16.8749C71.0929 16.7098 70.6774 16.6404 70.2635 16.6727C69.8161 16.6622 69.3726 16.7588 68.9698 16.9544C68.6106 17.1316 68.2962 17.3885 68.0506 17.7055C67.7953 18.0429 67.6049 18.425 67.4889 18.8322C67.3693 19.2724 67.3007 19.7249 67.2847 20.1809H73.1146ZM76.8934 21.2905C76.9254 21.6705 76.8129 22.0486 76.5785 22.3489C76.4684 22.4629 76.3359 22.5528 76.1894 22.613C76.043 22.6732 75.8857 22.7025 75.7275 22.6989H67.2847C67.2816 23.241 67.3532 23.781 67.4974 24.3035C67.6219 24.7485 67.8395 25.1616 68.1358 25.5156C68.4644 25.8614 68.8697 26.1245 69.3188 26.2838C69.8674 26.4671 70.4428 26.5565 71.0209 26.5484C71.6259 26.5552 72.2301 26.5037 72.8252 26.3948C73.2769 26.3145 73.7232 26.2062 74.1615 26.0704C74.5359 25.9424 74.8508 25.8399 75.0977 25.7375C75.288 25.651 75.4931 25.6018 75.7019 25.5924C75.7845 25.5881 75.8667 25.6058 75.9402 25.6436C76.0126 25.6891 76.0668 25.7586 76.0934 25.8399C76.1471 25.964 76.1761 26.0974 76.1785 26.2326C76.1785 26.4033 76.1785 26.6167 76.1785 26.8727C76.1785 27.1032 76.1785 27.2995 76.1785 27.4617C76.1725 27.5994 76.1555 27.7364 76.1275 27.8714C76.1131 27.969 76.0844 28.0639 76.0424 28.1531C75.9993 28.237 75.9449 28.3146 75.8807 28.3835C75.7117 28.5096 75.5254 28.6103 75.3274 28.6823C74.9527 28.8315 74.5689 28.9569 74.1785 29.0579C73.7104 29.1774 73.1742 29.2798 72.5784 29.3737C71.9413 29.465 71.2985 29.5106 70.655 29.5102C69.5586 29.5319 68.4661 29.3733 67.4208 29.0408C66.5458 28.763 65.7494 28.2803 65.0974 27.6324C64.4515 26.9548 63.9759 26.1326 63.7101 25.2339C63.3829 24.1263 63.2279 22.9747 63.2505 21.8197C63.25 20.6842 63.4251 19.5554 63.7697 18.4737C64.0525 17.5322 64.5278 16.6601 65.1655 15.9131C65.7783 15.2223 66.5412 14.6821 67.3953 14.334C68.3368 13.9571 69.3435 13.7715 70.3571 13.7877C71.3711 13.7615 72.3803 13.9355 73.3274 14.2998C74.1071 14.6092 74.8037 15.0974 75.3615 15.7253C75.8976 16.3547 76.2949 17.0906 76.5275 17.8848C76.7803 18.764 76.9036 19.6756 76.8934 20.5906V21.2905ZM60.927 28.6055C60.9252 28.7082 60.8893 28.8073 60.8249 28.8871C60.7351 28.9829 60.62 29.051 60.493 29.0835C60.2901 29.1446 60.0822 29.1874 59.8717 29.2115C59.6164 29.2115 59.293 29.2542 58.9015 29.2542C58.5099 29.2542 58.161 29.2542 57.8972 29.2115C57.6892 29.1894 57.4839 29.1465 57.2844 29.0835C57.1589 29.0533 57.0458 28.9847 56.961 28.8871C56.8966 28.8073 56.8606 28.7082 56.8588 28.6055V20.454H49.3182V28.6055C49.3159 28.7067 49.2833 28.8048 49.2246 28.8871C49.1397 28.9847 49.0267 29.0533 48.9012 29.0835C48.6985 29.1454 48.4905 29.1883 48.2799 29.2115C48.0331 29.2115 47.6926 29.2542 47.3011 29.2542C46.9096 29.2542 46.5777 29.2542 46.3139 29.2115C46.1005 29.1882 45.8896 29.1453 45.6841 29.0835C45.5571 29.051 45.4419 28.9829 45.3521 28.8871C45.2877 28.8073 45.2518 28.7082 45.25 28.6055V9.5626C45.2518 9.45992 45.2877 9.36078 45.3521 9.28093C45.444 9.18788 45.5584 9.12026 45.6841 9.08461C45.8896 9.02273 46.1005 8.97988 46.3139 8.95657C46.5777 8.95657 46.9011 8.95657 47.3011 8.95657C47.7011 8.95657 48.0331 8.95657 48.2799 8.95657C48.4905 8.97977 48.6985 9.02263 48.9012 9.08461C49.0267 9.11477 49.1397 9.18338 49.2246 9.28093C49.2833 9.36325 49.3159 9.46141 49.3182 9.5626V16.98H56.8588V9.5626C56.8606 9.45992 56.8966 9.36078 56.961 9.28093C57.0458 9.18338 57.1589 9.11477 57.2844 9.08461C57.4839 9.02157 57.6892 8.97868 57.8972 8.95657C58.161 8.95657 58.5014 8.95657 58.9015 8.95657C59.3015 8.95657 59.6164 8.95657 59.8717 8.95657C60.0764 8.98165 60.2786 9.02448 60.476 9.08461C60.6016 9.12026 60.716 9.18788 60.8079 9.28093C60.8723 9.36078 60.9082 9.45992 60.91 9.5626L60.927 28.6055ZM95.3706 14.7266C95.3686 14.634 95.3987 14.5435 95.4557 14.4706C95.5341 14.3738 95.6416 14.305 95.7621 14.2742C95.9558 14.2129 96.1555 14.1729 96.3578 14.1547C96.664 14.1393 96.9708 14.1393 97.277 14.1547C97.798 14.1306 98.3198 14.1824 98.826 14.3084C99.1324 14.4108 99.2771 14.5644 99.2771 14.7608V15.0595C100.128 13.984 101.745 13.7536 103.073 13.8645C104.066 13.9385 105.03 14.2298 105.899 14.7181C106.72 15.0998 107.43 15.6878 107.958 16.4252C108.442 17.0655 108.792 17.797 108.988 18.5762C109.221 19.5259 109.338 20.5003 109.337 21.4783C109.373 22.6138 109.221 23.7474 108.886 24.8327C108.625 25.7102 108.181 26.522 107.584 27.2142C107.013 27.9053 106.291 28.4545 105.473 28.8189C104.531 29.2422 103.517 29.4826 102.486 29.5273C101.424 29.585 100.36 29.5047 99.3196 29.2883V34.1365C99.3184 34.2379 99.2857 34.3364 99.226 34.4182C99.1432 34.5158 99.0337 34.587 98.9111 34.6231C98.7172 34.687 98.5177 34.7327 98.3153 34.7596C97.684 34.8165 97.0488 34.8165 96.4174 34.7596C96.2152 34.7317 96.0158 34.686 95.8216 34.6231C95.699 34.587 95.5895 34.5158 95.5067 34.4182C95.447 34.3364 95.4143 34.2379 95.4131 34.1365V14.7352L95.3706 14.7266ZM86.2214 12.7634C87.0431 12.7483 87.8531 12.5657 88.6022 12.2268C89.3513 11.8878 90.0239 11.3995 90.5789 10.7917C90.9364 10.3308 91.013 10.0321 90.5789 9.5626L89.7279 8.59808C89.3789 8.20544 89.1066 8.2908 88.7236 8.66636C88.4545 8.91624 88.147 9.12089 87.8129 9.27239C87.3073 9.53225 86.747 9.66689 86.1788 9.66503C85.6161 9.66682 85.0613 9.53212 84.5618 9.27239C84.2276 9.09682 83.9136 8.88501 83.6255 8.64076C83.2681 8.35908 82.9958 8.21398 82.6468 8.64076L81.8638 9.55406C81.3361 10.1601 81.4978 10.4076 81.9234 10.9368C82.4835 11.5115 83.1519 11.9689 83.8897 12.2825C84.6275 12.5961 85.4201 12.7595 86.2214 12.7634Z" fill="#6E6E6E"></path>
</svg>