<svg width="208" height="69" viewBox="0 0 208 69" fill="none" xmlns="http://www.w3.org/2000/svg">
<path d="M153.644 45.2683L151.516 51.5795L149.782 37.3006C149.388 33.5533 144.779 0.498901 144.779 0.498901L138.396 43.8483C138.396 43.8483 95.9231 43.8483 95.5291 43.8089C93.8743 43.6511 91.7861 43.4145 90.6041 42.7439C90.3283 42.5861 90.0525 42.3889 89.8555 42.1917C89.7373 42.0733 89.3433 41.6789 89.1463 41.3633C88.7523 40.7322 88.4765 40.18 88.122 39.3911C86.6248 36.1567 81.5028 21.6806 81.3846 21.5228C80.8724 20.7733 80.3208 20.5367 79.4934 20.5367C78.666 20.5367 77.9962 21.2861 77.7205 21.6411C77.6023 21.8383 73.8199 29.6878 73.1107 31.2656C72.9925 31.5417 72.5985 31.5417 72.4409 31.305C72.4409 31.305 62.6698 13.5945 62.6304 13.555C62.3546 13.1606 62 12.8056 61.5666 12.5295C60.7786 12.0956 59.8724 12.0167 59.0844 12.2533C58.4934 12.4506 57.9418 12.8056 57.5478 13.3183C57.3508 13.555 57.2326 13.8311 57.1144 14.1467L55.1051 20.0633C55.1051 20.0633 46.7917 42.7045 45.5704 44.2822C44.94 45.0317 44.2308 45.6628 43.561 45.86C43.4822 45.8995 40.4878 46.0967 40.4878 46.0967C36.0356 46.2939 0.654785 47.9111 0.654785 47.9111C9.5197 48.0689 42.182 48.1478 42.182 48.1478C42.182 48.1478 44.6642 48.0689 44.8218 48.0295C45.5704 47.8717 46.4372 47.5561 46.9887 47.1617C47.5403 46.7672 47.9737 46.3333 48.3677 45.86C49.9437 44.0061 50.5347 41.9156 51.5197 39.8645C52.5047 37.8133 59.5178 17.8545 59.5178 17.8545C59.7542 17.1839 60.4634 17.0656 60.8968 17.6178C61.1726 18.0122 71.0619 36.3933 71.0619 36.3933C71.8105 37.8133 73.7017 37.7739 74.4503 36.3539C74.4503 36.3539 77.7204 29.7272 78.863 27.5183C79.06 27.1239 79.6116 27.2422 79.7298 27.6367C79.7298 27.6367 80.439 29.6878 80.5966 30.2795C81.7392 33.9083 85.3246 42.5861 85.758 43.3356C86.3884 44.4006 87.0582 45.0317 87.1764 45.15C87.6492 45.5839 88.1613 45.9783 88.7129 46.2545C89.7767 46.8461 90.8011 47.0828 91.8649 47.28C93.1651 47.5167 142.375 47.635 142.375 47.635L144.621 29.2539C144.976 32.1728 149.861 68.6589 149.861 68.6589L155.574 47.8322C159.672 47.6745 207.542 45.1895 207.542 45.1895L153.644 45.2683Z" fill="black"/>
<path d="M97.6568 37.7345H103.094L104.276 40.4561H107.034L101.715 28.5833H99.0751L93.7168 40.4561H96.4748L97.6568 37.7345ZM100.375 31.0683L102.464 35.9989H98.3266L100.375 31.0683Z" fill="black"/>
<path d="M115.11 40.8111C116.686 40.8111 118.617 40.6928 120.035 39.2728C120.626 38.6811 121.217 37.7739 121.335 36.3934H118.617C118.538 37.2611 118.105 37.8134 117.671 38.1684C116.962 38.76 116.017 38.8389 115.268 38.8389C114.362 38.8389 113.259 38.7206 112.392 37.8528C111.722 37.1822 111.249 36.0383 111.249 34.5789C111.249 32.9222 111.84 31.9361 112.352 31.3839C113.259 30.4372 114.362 30.3189 115.307 30.3189C116.017 30.3189 116.844 30.3978 117.514 30.8711C118.262 31.3839 118.459 32.015 118.499 32.5278H121.217C121.178 31.8178 120.981 30.4767 119.562 29.4511C118.262 28.5045 116.45 28.3467 115.189 28.3467C113.653 28.3467 111.683 28.5833 110.185 30.1217C109.476 30.8317 108.491 32.2517 108.491 34.6578C108.491 37.3006 109.634 38.7206 110.185 39.3122C111.683 40.6534 113.534 40.8111 115.11 40.8111Z" fill="black"/>
<path d="M125.512 40.18C126.458 40.6139 127.718 40.7717 129.649 40.7717C130.989 40.7717 132.368 40.6533 133.392 40.0617C134.219 39.5883 135.007 38.6417 135.007 36.985C135.007 36.2356 134.85 35.2889 133.904 34.5789C133.116 33.9872 131.974 33.7506 130.87 33.5533L129.531 33.3167C128.467 33.1195 127.797 33.0406 127.206 32.8039C126.852 32.6461 126.3 32.4095 126.3 31.6995C126.3 31.3839 126.418 30.8317 127.206 30.4372C127.758 30.1611 128.388 30.0822 128.979 30.0822C129.688 30.0822 130.437 30.1611 130.989 30.4372C131.737 30.8317 131.895 31.3839 131.895 31.8178H134.574C134.574 31.1078 134.456 29.8061 132.88 28.9383C132.604 28.7806 131.501 28.1889 129.019 28.1889C127.837 28.1889 126.379 28.3072 125.236 29.0172C124.133 29.7272 123.621 30.6739 123.621 31.8967C123.621 32.8433 123.936 33.4745 124.409 33.8689C125.118 34.5 126.379 34.7761 128.073 35.0522L129.61 35.3283C130.555 35.4861 131.107 35.6439 131.54 35.8806C132.052 36.1567 132.289 36.5511 132.289 37.0639C132.289 37.4583 132.131 38.05 131.422 38.405C130.87 38.6811 129.964 38.76 129.334 38.76C128.625 38.76 127.64 38.6417 127.088 38.2867C126.3 37.8133 126.182 37.1033 126.182 36.5906V36.5117H123.463V36.5511C123.424 37.8922 123.778 39.3517 125.512 40.18Z" fill="black"/>
<path d="M159.79 32.015L159.672 31.0683H159.79L163.69 40.3378H165.66L169.6 31.0683H169.679L169.6 32.015V40.3378H172.161V28.465H168.497L164.715 37.5372H164.636L160.854 28.465H157.189V40.3378H159.79V32.015Z" fill="black"/>
<path d="M178.189 37.6161H183.626L184.808 40.3378H187.566L182.208 28.465H179.568L174.21 40.3378H176.968L178.189 37.6161ZM180.908 30.95L182.996 35.8806H178.859L180.908 30.95Z" fill="black"/>
</svg>
